<?xml version="1.0" encoding="iso-8859-1"?>
<!-- Generator: Adobe Illustrator 24.0.3, SVG Export Plug-In . SVG Version: 6.00 Build 0)  -->
<svg version="1.1" id="Layer_1" xmlns="http://www.w3.org/2000/svg" xmlns:xlink="http://www.w3.org/1999/xlink" x="0px" y="0px"
	 width="612px" height="792px" viewBox="0 0 612 792" enable-background="new 0 0 612 792" xml:space="preserve">
<g>
	<polygon fill="#FFFFFF" points="100.605,96.234 85.702,102.365 90.2,117.84 76.115,110.011 66.821,123.176 64.159,107.282 
		48.072,108.224 58.839,96.234 48.072,84.243 64.159,85.185 66.821,69.291 76.115,82.456 90.2,74.628 85.702,90.102 100.605,96.234 
		85.702,102.365 	"/>
	<polygon fill="none" stroke="#000000" stroke-width="0.765" stroke-linecap="round" stroke-miterlimit="10" points="
		100.605,96.234 85.702,102.365 90.2,117.84 76.115,110.011 66.821,123.176 64.159,107.282 48.072,108.224 58.839,96.234 
		48.072,84.243 64.159,85.185 66.821,69.291 76.115,82.456 90.2,74.628 85.702,90.102 100.605,96.234 85.702,102.365 	"/>
	<polygon fill="#FFFFFF" points="103.88,162.848 75.339,163.147 102.909,170.535 75.19,163.727 100.057,177.739 74.902,164.251 
		95.503,184.007 74.492,164.687 89.533,188.946 73.987,165.008 82.522,192.245 73.418,165.193 74.911,193.697 72.82,165.23 
		67.178,193.21 72.233,165.118 59.809,190.816 71.691,164.863 53.267,186.665 71.23,164.482 47.963,181.016 70.878,163.998 
		44.231,174.227 70.658,163.442 42.304,166.722 70.583,162.848 42.304,158.974 70.658,162.254 44.231,151.469 70.878,161.698 
		47.963,144.679 71.23,161.214 53.267,139.031 71.691,160.832 59.809,134.879 72.233,160.577 67.178,132.485 72.82,160.465 
		74.911,131.999 73.418,160.503 82.522,133.45 73.987,160.688 89.533,136.75 74.492,161.008 95.503,141.688 74.902,161.445 
		100.057,147.957 75.19,161.969 102.909,155.161 75.339,162.549 	"/>
	<polygon fill="none" stroke="#000000" stroke-width="0.765" stroke-linecap="round" stroke-miterlimit="10" points="
		103.88,162.848 75.339,163.147 102.909,170.535 75.19,163.727 100.057,177.739 74.902,164.251 95.503,184.007 74.492,164.687 
		89.533,188.946 73.987,165.008 82.522,192.245 73.418,165.193 74.911,193.697 72.82,165.23 67.178,193.21 72.233,165.118 
		59.809,190.816 71.691,164.863 53.267,186.665 71.23,164.482 47.963,181.016 70.878,163.998 44.231,174.227 70.658,163.441 
		42.304,166.722 70.583,162.848 42.304,158.974 70.658,162.254 44.231,151.469 70.878,161.698 47.963,144.679 71.23,161.214 
		53.267,139.031 71.691,160.832 59.809,134.879 72.233,160.577 67.178,132.485 72.82,160.465 74.911,131.999 73.418,160.503 
		82.522,133.451 73.987,160.688 89.533,136.75 74.492,161.008 95.503,141.688 74.902,161.445 100.057,147.957 75.19,161.969 
		102.909,155.161 75.339,162.549 	"/>
	<polygon fill="#FFFFFF" points="100.127,229.462 72.97,236.584 45.813,229.462 72.97,222.34 	"/>
	<polygon fill="none" stroke="#000000" stroke-width="0.765" stroke-linecap="round" stroke-miterlimit="10" points="
		100.127,229.462 72.97,236.584 45.813,229.462 72.97,222.34 	"/>
	<polygon fill="#FFFFFF" points="97.3,296.076 76.54,296.956 94.513,307.383 75.722,298.514 86.791,316.099 74.274,299.514 
		75.903,320.228 72.527,299.726 64.343,318.825 70.882,299.102 54.759,312.21 69.715,297.785 49.348,301.899 69.294,296.076 
		49.348,290.254 69.715,294.368 54.759,279.943 70.882,293.05 64.343,273.328 72.527,292.426 75.903,271.924 74.274,292.638 
		86.791,276.054 75.722,293.638 94.513,284.77 76.54,295.196 	"/>
	<polygon fill="none" stroke="#000000" stroke-width="0.765" stroke-linecap="round" stroke-miterlimit="10" points="97.3,296.076 
		76.54,296.956 94.513,307.383 75.722,298.514 86.791,316.099 74.274,299.514 75.903,320.228 72.527,299.726 64.343,318.825 
		70.882,299.102 54.759,312.21 69.715,297.785 49.348,301.899 69.294,296.076 49.348,290.254 69.715,294.368 54.759,279.943 
		70.882,293.05 64.343,273.328 72.527,292.426 75.903,271.924 74.274,292.638 86.791,276.054 75.722,293.638 94.513,284.77 
		76.54,295.196 	"/>
	<polygon fill="#FFFFFF" points="96.342,362.69 83.555,364.145 95.475,368.996 82.77,366.947 92.939,374.834 81.258,369.433 
		88.922,379.771 79.132,371.419 83.723,383.441 76.548,372.758 77.725,385.573 73.699,373.35 71.375,386.007 70.796,373.151 
		65.144,384.712 68.055,372.177 59.492,381.784 65.678,370.499 54.841,377.44 63.841,368.242 51.534,372.002 62.682,365.573 
		49.817,365.873 62.286,362.69 49.817,359.508 62.682,359.808 51.534,353.379 63.841,357.139 54.841,347.941 65.678,354.882 
		59.492,343.597 68.055,353.204 65.144,340.668 70.796,352.229 71.375,339.374 73.699,352.031 77.725,339.808 76.548,352.623 
		83.723,341.939 79.132,353.961 88.922,345.61 81.258,355.948 92.939,350.547 82.77,358.434 95.475,356.385 83.555,361.235 
		96.342,362.69 83.555,364.145 	"/>
	<polygon fill="none" stroke="#000000" stroke-width="0.765" stroke-linecap="round" stroke-miterlimit="10" points="96.342,362.69 
		83.555,364.145 95.475,368.996 82.77,366.947 92.939,374.834 81.258,369.433 88.922,379.771 79.132,371.419 83.723,383.441 
		76.548,372.758 77.725,385.573 73.699,373.35 71.375,386.007 70.796,373.151 65.144,384.712 68.055,372.177 59.492,381.784 
		65.678,370.499 54.841,377.44 63.841,368.242 51.534,372.002 62.682,365.573 49.817,365.873 62.286,362.69 49.817,359.508 
		62.682,359.808 51.534,353.379 63.841,357.139 54.841,347.941 65.678,354.882 59.492,343.597 68.055,353.204 65.144,340.669 
		70.796,352.229 71.375,339.374 73.699,352.031 77.725,339.808 76.548,352.623 83.723,341.939 79.132,353.962 88.922,345.61 
		81.258,355.948 92.939,350.547 82.77,358.434 95.475,356.385 83.555,361.236 96.342,362.69 83.555,364.145 	"/>
	<polygon fill="#FFFFFF" points="97.754,429.305 74.051,429.622 93.82,442.704 73.708,430.155 83.266,451.849 73.131,430.419 
		69.443,453.836 72.503,430.329 56.74,448.035 72.023,429.913 49.19,436.287 71.844,429.305 49.19,422.322 72.023,428.696 
		56.74,410.574 72.503,428.28 69.443,404.773 73.131,428.19 83.266,406.76 73.708,428.454 93.82,415.905 74.051,428.987 
		97.754,429.305 74.051,429.622 	"/>
	<polygon fill="none" stroke="#000000" stroke-width="0.765" stroke-linecap="round" stroke-miterlimit="10" points="
		97.754,429.305 74.051,429.622 93.82,442.704 73.708,430.155 83.266,451.849 73.131,430.419 69.443,453.836 72.503,430.329 
		56.74,448.035 72.023,429.913 49.19,436.287 71.844,429.305 49.19,422.322 72.023,428.696 56.74,410.574 72.503,428.28 
		69.443,404.773 73.131,428.19 83.266,406.76 73.708,428.454 93.82,415.905 74.051,428.987 97.754,429.305 74.051,429.622 	"/>
	<polygon fill="#FFFFFF" points="104.184,495.919 85.773,498.841 101.093,509.462 83.237,504.106 92.432,520.323 78.668,507.75 
		79.916,526.35 72.97,509.051 66.024,526.35 67.272,507.75 53.509,520.323 62.703,504.106 44.847,509.462 60.167,498.841 
		41.756,495.919 60.167,492.997 44.847,482.375 62.703,487.731 53.509,471.514 67.272,484.087 66.024,465.487 72.97,482.786 
		79.916,465.487 78.668,484.087 92.432,471.514 83.237,487.731 101.093,482.375 85.773,492.997 	"/>
	<polygon fill="none" stroke="#000000" stroke-width="0.765" stroke-linecap="round" stroke-miterlimit="10" points="
		104.184,495.919 85.773,498.841 101.093,509.462 83.237,504.107 92.432,520.323 78.668,507.75 79.916,526.35 72.97,509.051 
		66.024,526.35 67.272,507.75 53.509,520.323 62.703,504.107 44.847,509.462 60.167,498.841 41.756,495.919 60.167,492.997 
		44.847,482.375 62.703,487.731 53.509,471.514 67.272,484.087 66.024,465.487 72.97,482.786 79.916,465.487 78.668,484.087 
		92.432,471.514 83.237,487.731 101.093,482.375 85.773,492.997 	"/>
	<polygon fill="#FFFFFF" points="96.19,562.533 86.066,565.522 93.891,572.608 83.472,570.908 87.448,580.687 78.798,574.635 
		78.137,585.17 72.97,575.965 67.803,585.17 67.142,574.635 58.493,580.687 62.468,570.908 52.05,572.608 59.875,565.522 
		49.751,562.533 59.875,559.544 52.05,552.458 62.468,554.158 58.493,544.379 67.142,550.431 67.803,539.895 72.97,549.101 
		78.137,539.895 78.798,550.431 87.448,544.379 83.472,554.158 93.891,552.458 86.066,559.544 	"/>
	<polygon fill="none" stroke="#000000" stroke-width="0.765" stroke-linecap="round" stroke-miterlimit="10" points="96.19,562.533 
		86.066,565.522 93.89,572.608 83.472,570.908 87.448,580.687 78.798,574.635 78.137,585.17 72.97,575.965 67.803,585.17 
		67.142,574.635 58.493,580.687 62.468,570.908 52.05,572.608 59.875,565.522 49.751,562.533 59.875,559.544 52.05,552.458 
		62.468,554.158 58.493,544.379 67.142,550.431 67.803,539.895 72.97,549.101 78.137,539.895 78.798,550.431 87.448,544.379 
		83.472,554.158 93.891,552.458 86.066,559.544 	"/>
	<polygon fill="#FFFFFF" points="98.79,629.147 72.97,640.306 47.15,629.147 72.97,617.988 	"/>
	<polygon fill="none" stroke="#000000" stroke-width="0.765" stroke-linecap="round" stroke-miterlimit="10" points="98.79,629.147 
		72.97,640.306 47.15,629.147 72.97,617.988 	"/>
	<polygon fill="#FFFFFF" points="95.969,695.761 79.412,706.919 61.471,715.679 60.087,695.761 61.471,675.844 79.412,684.604 	"/>
	<polygon fill="none" stroke="#000000" stroke-width="0.765" stroke-linecap="round" stroke-miterlimit="10" points="
		95.969,695.761 79.412,706.919 61.471,715.679 60.087,695.761 61.471,675.844 79.412,684.604 	"/>
	<polygon fill="#FFFFFF" points="161.901,96.234 145.691,106.811 128.426,115.561 127.371,96.234 128.426,76.907 145.691,85.657 	
		"/>
	<polygon fill="none" stroke="#000000" stroke-width="0.765" stroke-linecap="round" stroke-miterlimit="10" points="
		161.901,96.234 145.691,106.811 128.426,115.561 127.371,96.234 128.426,76.907 145.691,85.657 	"/>
	<path fill="none" stroke="#000000" stroke-width="0.765" stroke-linecap="round" stroke-miterlimit="10" d="M165.825,162.848
		H138.73H165.825z"/>
	<polygon fill="#FFFFFF" points="164.39,229.462 143.058,235.478 127.182,250.944 132.638,229.462 127.182,207.98 143.058,223.446 	
		"/>
	<polygon fill="none" stroke="#000000" stroke-width="0.765" stroke-linecap="round" stroke-miterlimit="10" points="
		164.39,229.462 143.058,235.478 127.182,250.944 132.638,229.462 127.182,207.98 143.058,223.446 	"/>
	<polygon fill="#FFFFFF" points="160.252,296.076 142.734,298.365 145.971,315.732 138.381,299.779 122.864,308.224 
		135.691,296.076 122.864,283.928 138.381,292.373 145.971,276.42 142.734,293.788 	"/>
	<polygon fill="none" stroke="#000000" stroke-width="0.765" stroke-linecap="round" stroke-miterlimit="10" points="
		160.252,296.076 142.734,298.365 145.971,315.732 138.381,299.779 122.864,308.224 135.691,296.076 122.864,283.928 
		138.381,292.373 145.971,276.42 142.734,293.788 	"/>
	<polygon fill="#FFFFFF" points="159.172,362.69 143.122,363.251 158.213,368.743 142.775,364.316 155.431,374.203 142.117,365.223 
		151.098,378.537 141.21,365.881 145.637,381.319 140.145,366.228 139.584,382.278 139.024,366.228 133.532,381.319 
		137.959,365.881 128.071,378.537 137.052,365.223 123.738,374.203 136.393,364.316 120.956,368.743 136.047,363.251 
		119.997,362.69 136.047,362.13 120.956,356.637 136.393,361.064 123.738,351.177 137.052,360.158 128.071,346.844 137.959,359.499 
		133.532,344.062 139.024,359.153 139.584,343.103 140.145,359.153 145.637,344.062 141.21,359.499 151.098,346.844 
		142.117,360.158 155.431,351.177 142.775,361.064 158.213,356.638 143.122,362.13 	"/>
	<polygon fill="none" stroke="#000000" stroke-width="0.765" stroke-linecap="round" stroke-miterlimit="10" points="
		159.172,362.69 143.122,363.251 158.213,368.743 142.776,364.316 155.431,374.204 142.117,365.223 151.098,378.537 141.21,365.881 
		145.637,381.319 140.145,366.228 139.584,382.278 139.024,366.228 133.532,381.319 137.959,365.881 128.071,378.537 
		137.052,365.223 123.738,374.204 136.393,364.316 120.956,368.743 136.047,363.251 119.997,362.69 136.047,362.13 120.956,356.638 
		136.393,361.064 123.738,351.177 137.052,360.158 128.071,346.844 137.959,359.499 133.532,344.062 139.024,359.153 
		139.584,343.103 140.145,359.153 145.637,344.062 141.21,359.499 151.098,346.844 142.117,360.158 155.431,351.177 
		142.776,361.064 158.213,356.638 143.122,362.13 	"/>
	<polygon fill="#FFFFFF" points="172.159,429.305 153.018,431.151 170.951,438.093 152.022,434.707 167.417,446.23 150.103,437.862 
		161.818,453.111 147.404,440.382 154.571,458.227 144.125,442.081 146.212,461.198 140.51,442.833 137.361,461.803 
		136.826,442.581 128.676,459.998 133.346,441.344 120.799,455.917 130.329,439.214 114.316,449.862 127.999,436.35 
		109.707,442.282 126.528,432.963 107.313,433.74 126.025,429.305 107.313,424.869 126.528,425.646 109.707,416.327 
		127.999,422.259 114.316,408.747 130.329,419.395 120.799,402.692 133.346,417.265 128.676,398.611 136.826,416.028 
		137.361,396.806 140.51,415.776 146.212,397.411 144.125,416.528 154.571,400.382 147.404,418.227 161.818,405.498 
		150.103,420.747 167.417,412.379 152.022,423.902 170.951,420.516 153.018,427.458 172.159,429.305 153.018,431.151 	"/>
	<polygon fill="none" stroke="#000000" stroke-width="0.765" stroke-linecap="round" stroke-miterlimit="10" points="
		172.159,429.305 153.018,431.151 170.951,438.093 152.022,434.707 167.417,446.23 150.103,437.862 161.818,453.111 
		147.404,440.382 154.571,458.227 144.125,442.081 146.212,461.198 140.51,442.833 137.361,461.803 136.826,442.581 
		128.676,459.998 133.346,441.344 120.799,455.917 130.329,439.214 114.316,449.862 127.999,436.35 109.707,442.282 
		126.528,432.963 107.313,433.74 126.025,429.305 107.313,424.869 126.528,425.646 109.707,416.327 127.999,422.259 
		114.316,408.747 130.329,419.395 120.799,402.692 133.346,417.265 128.676,398.611 136.826,416.028 137.361,396.806 
		140.51,415.776 146.212,397.411 144.125,416.528 154.571,400.382 147.404,418.227 161.818,405.498 150.103,420.747 
		167.417,412.379 152.022,423.902 170.951,420.516 153.018,427.458 172.159,429.304 153.018,431.151 	"/>
	<polygon fill="#FFFFFF" points="167.584,495.919 145.596,497.042 165.693,506.033 144.784,499.138 160.276,514.782 143.27,500.799 
		152.065,520.983 141.258,501.801 142.168,523.799 139.02,502.008 131.922,522.849 136.859,501.393 122.711,518.263 
		135.065,500.039 115.779,510.658 133.882,498.128 112.062,501.064 133.469,495.919 112.062,490.774 133.882,493.71 
		115.779,481.179 135.065,491.799 122.711,473.575 136.859,490.444 131.922,468.988 139.02,489.829 142.168,468.039 
		141.258,490.037 152.065,470.855 143.27,491.039 160.276,477.056 144.784,492.699 165.693,485.804 145.596,494.795 	"/>
	<polygon fill="none" stroke="#000000" stroke-width="0.765" stroke-linecap="round" stroke-miterlimit="10" points="
		167.584,495.919 145.596,497.042 165.693,506.033 144.784,499.138 160.276,514.782 143.27,500.799 152.065,520.983 
		141.258,501.801 142.168,523.799 139.02,502.008 131.922,522.849 136.859,501.393 122.711,518.263 135.065,500.039 
		115.779,510.658 133.882,498.128 112.062,501.064 133.469,495.919 112.062,490.774 133.882,493.71 115.779,481.179 
		135.065,491.799 122.711,473.575 136.859,490.444 131.922,468.988 139.02,489.829 142.168,468.039 141.258,490.037 
		152.065,470.855 143.27,491.039 160.276,477.056 144.784,492.699 165.693,485.804 145.596,494.795 	"/>
	<polygon fill="#FFFFFF" points="172.608,562.533 146.153,563.573 170.992,572.738 145.51,565.552 166.301,581.944 144.287,567.236 
		158.995,589.25 142.604,568.459 149.789,593.94 140.625,569.102 139.584,595.557 138.544,569.102 129.38,593.94 136.565,568.459 
		120.173,589.25 134.882,567.236 112.868,581.944 133.659,565.552 108.177,572.738 133.016,563.573 106.561,562.533 
		133.016,561.492 108.177,552.328 133.659,559.514 112.868,543.122 134.882,557.83 120.174,535.816 136.565,556.607 129.38,531.125 
		138.544,555.964 139.584,529.509 140.625,555.964 149.789,531.125 142.604,556.607 158.995,535.816 144.287,557.83 
		166.301,543.122 145.51,559.514 170.992,552.328 146.153,561.492 	"/>
	<polygon fill="none" stroke="#000000" stroke-width="0.765" stroke-linecap="round" stroke-miterlimit="10" points="
		172.608,562.533 146.153,563.573 170.992,572.738 145.51,565.552 166.301,581.944 144.287,567.236 158.995,589.25 142.604,568.459 
		149.789,593.94 140.625,569.102 139.584,595.557 138.544,569.102 129.379,593.94 136.565,568.459 120.173,589.25 134.882,567.236 
		112.868,581.944 133.659,565.552 108.177,572.738 133.016,563.573 106.561,562.533 133.016,561.492 108.177,552.328 
		133.659,559.514 112.868,543.122 134.882,557.83 120.173,535.816 136.565,556.607 129.38,531.125 138.544,555.964 139.584,529.509 
		140.625,555.964 149.789,531.125 142.604,556.607 158.995,535.816 144.287,557.83 166.301,543.122 145.51,559.514 170.992,552.328 
		146.153,561.492 	"/>
	<polygon fill="#FFFFFF" points="158.002,629.147 143.098,630.839 151.067,643.546 140.452,632.95 135.486,647.102 137.153,632.196 
		122.991,637.138 135.684,629.147 122.991,621.156 137.153,626.098 135.486,611.192 140.452,625.345 151.067,614.748 
		143.098,627.455 158.002,629.147 143.098,630.839 	"/>
	<polygon fill="none" stroke="#000000" stroke-width="0.765" stroke-linecap="round" stroke-miterlimit="10" points="
		158.002,629.147 143.098,630.839 151.067,643.546 140.452,632.95 135.486,647.102 137.153,632.196 122.991,637.138 
		135.684,629.147 122.991,621.156 137.153,626.098 135.486,611.192 140.452,625.345 151.067,614.748 143.098,627.455 
		158.002,629.147 143.098,630.839 	"/>
	<polygon fill="#FFFFFF" points="167.362,695.761 149.861,697.174 166.332,703.256 149.099,699.894 163.318,710.194 
		147.631,702.308 158.544,716.062 145.566,704.236 152.364,720.425 143.058,705.536 145.236,722.958 140.292,706.11 
		137.689,723.474 137.474,705.918 130.282,721.935 134.812,704.971 123.566,718.455 132.504,703.342 118.037,713.291 
		130.721,701.151 114.106,706.828 129.596,698.56 112.065,699.544 129.211,695.761 112.065,691.979 129.596,692.963 
		114.106,684.695 130.721,690.371 118.037,678.231 132.504,688.18 123.566,673.068 134.812,686.551 130.282,669.587 
		137.474,685.605 137.689,668.048 140.292,685.412 145.236,668.564 143.058,685.987 152.364,671.098 145.566,687.287 
		158.544,675.46 147.631,689.215 163.318,681.328 149.099,691.628 166.332,688.267 149.861,694.349 167.362,695.761 
		149.861,697.174 	"/>
	<polygon fill="none" stroke="#000000" stroke-width="0.765" stroke-linecap="round" stroke-miterlimit="10" points="
		167.362,695.761 149.861,697.174 166.332,703.256 149.099,699.894 163.318,710.194 147.631,702.308 158.544,716.062 
		145.566,704.236 152.364,720.425 143.058,705.536 145.236,722.958 140.292,706.11 137.689,723.474 137.474,705.918 
		130.282,721.935 134.812,704.971 123.566,718.455 132.504,703.342 118.037,713.291 130.721,701.151 114.106,706.828 
		129.596,698.56 112.065,699.544 129.211,695.761 112.065,691.979 129.596,692.963 114.106,684.695 130.721,690.371 
		118.037,678.231 132.504,688.18 123.566,673.068 134.812,686.551 130.282,669.587 137.474,685.605 137.689,668.048 
		140.292,685.412 145.236,668.564 143.058,685.987 152.364,671.098 145.566,687.287 158.544,675.46 147.631,689.215 
		163.318,681.328 149.099,691.628 166.332,688.267 149.861,694.349 167.362,695.761 149.861,697.174 	"/>
	<polygon fill="#FFFFFF" points="226.36,96.234 215.822,101.79 216.279,113.694 206.199,107.346 196.118,113.694 196.575,101.79 
		186.037,96.234 196.575,90.677 196.118,78.773 206.199,85.121 216.279,78.773 215.822,90.677 226.36,96.234 215.822,101.79 	"/>
	<polygon fill="none" stroke="#000000" stroke-width="0.765" stroke-linecap="round" stroke-miterlimit="10" points="226.36,96.234 
		215.822,101.79 216.279,113.694 206.199,107.346 196.118,113.694 196.575,101.79 186.037,96.234 196.575,90.677 196.118,78.773 
		206.199,85.121 216.279,78.773 215.822,90.677 226.36,96.234 215.822,101.79 	"/>
	<polygon fill="#FFFFFF" points="237.704,162.848 210.373,163.448 236.428,171.724 210.035,164.6 232.702,179.881 209.386,165.61 
		226.83,186.658 208.479,166.396 219.286,191.506 207.387,166.894 210.682,194.032 206.199,167.065 201.715,194.032 205.01,166.894 
		193.111,191.506 203.919,166.396 185.567,186.658 203.011,165.61 179.695,179.881 202.362,164.6 175.97,171.724 202.024,163.448 
		174.694,162.848 202.024,162.248 175.97,153.972 202.362,161.096 179.695,145.815 203.011,160.086 185.567,139.038 203.919,159.3 
		193.111,134.19 205.01,158.801 201.715,131.663 206.199,158.63 210.682,131.663 207.387,158.801 219.286,134.19 208.479,159.3 
		226.83,139.038 209.386,160.086 232.702,145.815 210.035,161.096 236.428,153.972 210.373,162.248 237.704,162.848 
		210.373,163.448 	"/>
	<polygon fill="none" stroke="#000000" stroke-width="0.765" stroke-linecap="round" stroke-miterlimit="10" points="
		237.704,162.848 210.373,163.448 236.428,171.724 210.035,164.6 232.702,179.881 209.386,165.61 226.83,186.658 208.479,166.396 
		219.286,191.506 207.387,166.895 210.682,194.032 206.199,167.065 201.715,194.032 205.01,166.895 193.111,191.506 
		203.918,166.396 185.567,186.658 203.011,165.61 179.695,179.881 202.362,164.6 175.97,171.724 202.024,163.448 174.694,162.848 
		202.024,162.248 175.97,153.972 202.362,161.096 179.695,145.815 203.011,160.086 185.567,139.038 203.918,159.3 193.111,134.19 
		205.01,158.801 201.715,131.663 206.199,158.63 210.682,131.663 207.387,158.801 219.286,134.19 208.479,159.3 226.83,139.038 
		209.386,160.086 232.702,145.815 210.035,161.096 236.427,153.972 210.373,162.248 237.704,162.848 210.373,163.448 	"/>
	<polygon fill="#FFFFFF" points="224.331,229.462 221.561,231.193 223.877,233.497 220.79,234.568 222.536,237.33 219.288,237.687 
		220.375,240.768 217.13,240.393 217.504,243.639 214.424,242.552 214.066,245.799 211.304,244.054 210.234,247.14 207.93,244.824 
		206.199,247.595 204.468,244.824 202.164,247.14 201.093,244.054 198.331,245.799 197.974,242.552 194.893,243.639 
		195.267,240.393 192.022,240.768 193.109,237.687 189.862,237.33 191.607,234.568 188.52,233.497 190.837,231.193 188.066,229.462 
		190.837,227.731 188.52,225.427 191.607,224.356 189.862,221.594 193.109,221.237 192.022,218.156 195.267,218.531 
		194.893,215.285 197.974,216.372 198.331,213.125 201.093,214.87 202.164,211.784 204.468,214.1 206.199,211.329 207.93,214.1 
		210.234,211.784 211.304,214.87 214.066,213.125 214.424,216.372 217.504,215.285 217.13,218.531 220.375,218.156 219.288,221.237 
		222.536,221.594 220.79,224.356 223.877,225.427 221.561,227.731 	"/>
	<polygon fill="none" stroke="#000000" stroke-width="0.765" stroke-linecap="round" stroke-miterlimit="10" points="
		224.331,229.462 221.561,231.193 223.877,233.497 220.79,234.568 222.536,237.329 219.288,237.687 220.375,240.768 217.13,240.393 
		217.504,243.639 214.423,242.552 214.066,245.799 211.305,244.054 210.234,247.14 207.93,244.824 206.199,247.595 204.468,244.824 
		202.164,247.14 201.093,244.054 198.331,245.799 197.974,242.552 194.893,243.639 195.267,240.393 192.022,240.768 
		193.109,237.687 189.862,237.329 191.607,234.568 188.52,233.497 190.837,231.193 188.066,229.462 190.837,227.731 188.52,225.427 
		191.607,224.356 189.862,221.594 193.109,221.237 192.022,218.156 195.267,218.531 194.893,215.285 197.974,216.372 
		198.331,213.125 201.093,214.87 202.164,211.784 204.468,214.1 206.199,211.329 207.93,214.1 210.234,211.784 211.305,214.87 
		214.066,213.125 214.423,216.372 217.504,215.285 217.13,218.531 220.375,218.156 219.288,221.237 222.536,221.595 220.79,224.356 
		223.877,225.427 221.561,227.731 	"/>
	<polygon fill="#FFFFFF" points="230.393,296.076 220.301,297.61 229.827,301.277 219.641,300.606 228.156,306.235 218.353,303.389 
		225.459,310.718 216.497,305.831 221.861,314.516 214.159,307.817 217.531,317.452 211.449,309.254 212.671,319.388 
		208.494,310.075 207.508,320.235 205.431,310.241 202.285,319.951 202.404,309.744 197.243,318.552 199.554,308.609 
		192.621,316.101 197.015,306.888 188.634,312.714 194.906,304.661 185.468,308.549 193.324,302.032 183.271,303.801 
		192.345,299.126 182.146,298.692 192.013,296.076 182.146,293.46 192.345,293.027 183.271,288.351 193.324,290.12 185.468,283.603 
		194.906,287.492 188.634,279.438 197.015,285.265 192.621,276.051 199.554,283.543 197.243,273.601 202.404,282.408 
		202.284,272.201 205.431,281.912 207.508,271.918 208.494,282.078 212.671,272.764 211.449,282.898 217.531,274.701 
		214.159,284.335 221.861,277.636 216.497,286.321 225.459,281.435 218.353,288.763 228.156,285.917 219.641,291.547 
		229.827,290.875 220.301,294.542 230.393,296.076 220.301,297.61 	"/>
	<polygon fill="none" stroke="#000000" stroke-width="0.765" stroke-linecap="round" stroke-miterlimit="10" points="
		230.393,296.076 220.301,297.61 229.827,301.277 219.641,300.606 228.157,306.235 218.353,303.389 225.459,310.718 
		216.497,305.831 221.861,314.516 214.159,307.817 217.531,317.452 211.449,309.254 212.671,319.388 208.494,310.075 
		207.508,320.235 205.431,310.241 202.284,319.951 202.404,309.745 197.243,318.552 199.554,308.609 192.621,316.101 
		197.015,306.888 188.634,312.714 194.906,304.661 185.468,308.549 193.324,302.032 183.271,303.801 192.345,299.126 
		182.146,298.692 192.013,296.076 182.146,293.46 192.345,293.027 183.271,288.351 193.324,290.12 185.468,283.603 194.906,287.492 
		188.634,279.438 197.015,285.265 192.621,276.051 199.554,283.543 197.243,273.601 202.404,282.408 202.284,272.201 
		205.431,281.912 207.508,271.918 208.494,282.078 212.671,272.764 211.449,282.898 217.531,274.701 214.159,284.335 
		221.861,277.636 216.497,286.321 225.459,281.435 218.353,288.763 228.156,285.917 219.641,291.547 229.827,290.875 
		220.301,294.542 230.393,296.076 220.301,297.61 	"/>
	<polygon fill="#FFFFFF" points="234.714,362.69 211.607,363.766 232.543,373.603 210.784,365.754 226.362,382.854 209.262,367.275 
		217.111,389.035 207.274,368.099 206.199,391.206 205.123,368.099 195.286,389.035 203.135,367.275 186.035,382.854 
		201.614,365.754 179.854,373.603 200.79,363.766 177.683,362.69 200.79,361.615 179.854,351.778 201.614,359.627 186.035,342.527 
		203.135,358.105 195.286,336.346 205.123,357.282 206.199,334.175 207.274,357.282 217.111,336.346 209.262,358.105 
		226.362,342.527 210.784,359.627 232.543,351.778 211.607,361.615 	"/>
	<polygon fill="none" stroke="#000000" stroke-width="0.765" stroke-linecap="round" stroke-miterlimit="10" points="
		234.714,362.69 211.607,363.766 232.543,373.603 210.784,365.754 226.362,382.854 209.262,367.275 217.111,389.035 
		207.274,368.099 206.199,391.206 205.123,368.099 195.286,389.035 203.135,367.275 186.035,382.854 201.613,365.754 
		179.854,373.603 200.79,363.766 177.683,362.69 200.79,361.615 179.854,351.778 201.613,359.627 186.035,342.527 203.135,358.105 
		195.286,336.346 205.123,357.282 206.199,334.175 207.274,357.282 217.111,336.346 209.262,358.105 226.362,342.527 
		210.784,359.627 232.543,351.778 211.607,361.615 	"/>
	<polygon fill="#FFFFFF" points="227.018,429.305 215.437,430.309 226.531,433.78 215.005,432.272 225.094,438.046 214.161,434.095 
		222.773,441.904 212.945,435.695 219.677,445.172 211.413,436.996 215.951,447.699 209.638,437.937 211.768,449.365 
		207.702,438.475 207.326,450.094 205.696,438.583 202.83,449.85 203.713,438.258 198.493,448.645 201.846,437.515 194.515,446.537 
		200.183,436.387 191.084,443.622 198.801,434.928 188.359,440.038 197.765,433.206 186.469,435.952 197.123,431.302 
		185.501,431.555 196.906,429.305 185.501,427.054 197.123,427.307 186.469,422.657 197.765,425.403 188.359,418.571 
		198.801,423.681 191.084,414.987 200.183,422.222 194.515,412.072 201.846,421.095 198.493,409.964 203.713,420.351 
		202.83,408.759 205.695,420.026 207.326,408.515 207.702,420.134 211.768,409.244 209.638,420.672 215.951,410.91 211.413,421.613 
		219.677,413.437 212.945,422.914 222.773,416.705 214.161,424.514 225.094,420.563 215.005,426.337 226.531,424.829 215.437,428.3 
		227.018,429.305 215.437,430.309 	"/>
	<polygon fill="none" stroke="#000000" stroke-width="0.765" stroke-linecap="round" stroke-miterlimit="10" points="
		227.018,429.305 215.437,430.309 226.531,433.78 215.005,432.272 225.094,438.046 214.161,434.095 222.773,441.904 
		212.945,435.695 219.677,445.172 211.413,436.996 215.951,447.699 209.638,437.937 211.768,449.365 207.702,438.475 
		207.326,450.094 205.696,438.583 202.83,449.85 203.713,438.258 198.492,448.645 201.846,437.515 194.515,446.537 200.183,436.387 
		191.084,443.622 198.801,434.928 188.359,440.038 197.765,433.206 186.469,435.952 197.123,431.302 185.501,431.555 
		196.906,429.305 185.501,427.053 197.123,427.307 186.469,422.657 197.765,425.403 188.359,418.571 198.801,423.681 
		191.084,414.987 200.183,422.222 194.515,412.072 201.846,421.094 198.492,409.964 203.713,420.351 202.83,408.759 
		205.696,420.026 207.326,408.516 207.702,420.134 211.768,409.244 209.638,420.672 215.951,410.91 211.413,421.613 
		219.677,413.437 212.945,422.914 222.773,416.705 214.161,424.514 225.094,420.563 215.005,426.337 226.531,424.829 215.437,428.3 
		227.018,429.304 215.437,430.309 	"/>
	<polygon fill="#FFFFFF" points="226.82,495.919 211.535,498.488 219.056,512.041 207.517,501.693 201.61,516.023 202.506,500.549 
		187.619,504.866 200.276,495.919 187.619,486.971 202.506,491.288 201.61,475.814 207.517,490.145 219.056,479.796 
		211.535,493.349 226.82,495.919 211.535,498.488 	"/>
	<polygon fill="none" stroke="#000000" stroke-width="0.765" stroke-linecap="round" stroke-miterlimit="10" points="
		226.82,495.919 211.535,498.488 219.056,512.041 207.517,501.693 201.61,516.023 202.506,500.549 187.619,504.866 200.276,495.919 
		187.619,486.971 202.506,491.288 201.61,475.814 207.517,490.145 219.056,479.796 211.535,493.349 226.82,495.919 211.535,498.488 
			"/>
	<polygon fill="#FFFFFF" points="225.354,562.533 216.597,564.028 224.578,567.93 215.754,566.897 222.313,572.889 214.138,569.412 
		218.743,577.009 211.878,571.37 214.156,579.957 209.158,572.612 208.925,581.493 206.199,573.038 203.472,581.493 
		203.239,572.612 198.241,579.957 200.519,571.37 193.655,577.009 198.259,569.412 190.084,572.889 196.643,566.897 187.819,567.93 
		195.8,564.028 187.043,562.533 195.8,561.038 187.819,557.136 196.643,558.169 190.084,552.177 198.259,555.654 193.655,548.056 
		200.519,553.695 198.241,545.109 203.239,552.453 203.472,543.572 206.199,552.028 208.925,543.572 209.158,552.453 
		214.156,545.109 211.878,553.695 218.743,548.056 214.138,555.654 222.313,552.177 215.754,558.169 224.578,557.136 
		216.597,561.038 225.354,562.533 216.597,564.028 	"/>
	<polygon fill="none" stroke="#000000" stroke-width="0.765" stroke-linecap="round" stroke-miterlimit="10" points="
		225.354,562.533 216.597,564.028 224.578,567.93 215.754,566.897 222.313,572.889 214.138,569.412 218.743,577.01 211.878,571.37 
		214.156,579.957 209.158,572.612 208.925,581.493 206.199,573.038 203.472,581.493 203.239,572.612 198.241,579.957 
		200.519,571.37 193.655,577.01 198.259,569.412 190.084,572.889 196.643,566.897 187.819,567.93 195.8,564.028 187.043,562.533 
		195.8,561.038 187.819,557.136 196.643,558.169 190.084,552.177 198.259,555.654 193.655,548.056 200.519,553.695 198.241,545.109 
		203.239,552.453 203.472,543.572 206.199,552.028 208.925,543.572 209.158,552.453 214.156,545.109 211.878,553.695 
		218.743,548.056 214.138,555.654 222.313,552.177 215.754,558.169 224.578,557.136 216.597,561.038 225.354,562.533 
		216.597,564.028 	"/>
	<polygon fill="#FFFFFF" points="226.553,629.147 208.804,630.402 218.889,645.06 206.842,631.966 201.669,648.991 204.396,631.408 
		187.86,637.978 203.307,629.147 187.86,620.316 204.396,626.886 201.669,609.303 206.842,626.328 218.889,613.234 208.804,627.892 
		226.553,629.147 208.804,630.402 	"/>
	<polygon fill="none" stroke="#000000" stroke-width="0.765" stroke-linecap="round" stroke-miterlimit="10" points="
		226.553,629.147 208.804,630.402 218.889,645.06 206.842,631.966 201.669,648.991 204.396,631.408 187.86,637.978 203.307,629.147 
		187.86,620.316 204.396,626.886 201.669,609.303 206.842,626.328 218.889,613.234 208.804,627.892 226.553,629.147 
		208.804,630.402 	"/>
	<polygon fill="#FFFFFF" points="228.4,695.761 214.894,702.079 213.059,716.876 202.877,705.983 188.237,708.811 195.451,695.761 
		188.237,682.711 202.877,685.539 213.059,674.646 214.894,689.444 	"/>
	<polygon fill="none" stroke="#000000" stroke-width="0.765" stroke-linecap="round" stroke-miterlimit="10" points="
		228.401,695.761 214.894,702.079 213.059,716.876 202.877,705.983 188.237,708.811 195.451,695.761 188.237,682.711 
		202.877,685.539 213.059,674.646 214.894,689.444 	"/>
	<polygon fill="#FFFFFF" points="298.341,96.234 282.314,97.267 297.744,101.722 281.87,99.285 295.982,106.953 281.002,101.161 
		293.136,111.683 279.751,102.806 289.34,115.69 278.176,104.144 284.771,118.788 276.35,105.112 279.642,120.832 274.359,105.665 
		274.195,121.725 272.295,105.777 268.683,121.426 270.256,105.443 263.364,119.949 268.336,104.678 258.487,117.363 
		266.626,103.518 254.279,113.79 265.204,102.017 250.939,109.395 264.139,100.247 248.621,104.385 263.479,98.288 247.434,98.994 
		263.255,96.234 247.434,93.474 263.479,94.179 248.621,88.082 264.139,92.221 250.939,83.072 265.204,90.45 254.279,78.678 
		266.625,88.949 258.487,75.104 268.336,87.79 263.364,72.518 270.256,87.025 268.683,71.041 272.295,86.69 274.195,70.743 
		274.359,86.802 279.642,71.636 276.35,87.355 284.771,73.679 278.176,88.323 289.34,76.777 279.751,89.661 293.136,80.784 
		281.002,91.306 295.982,85.515 281.87,93.182 297.744,90.746 282.314,95.2 298.341,96.234 282.314,97.267 	"/>
	<polygon fill="none" stroke="#000000" stroke-width="0.765" stroke-linecap="round" stroke-miterlimit="10" points="
		298.341,96.234 282.314,97.267 297.744,101.722 281.87,99.285 295.982,106.953 281.002,101.161 293.136,111.683 279.751,102.806 
		289.34,115.69 278.176,104.144 284.771,118.788 276.35,105.112 279.642,120.832 274.359,105.665 274.195,121.725 272.295,105.777 
		268.683,121.426 270.256,105.443 263.364,119.949 268.336,104.678 258.487,117.363 266.625,103.518 254.279,113.79 
		265.204,102.018 250.939,109.395 264.139,100.247 248.621,104.385 263.479,98.288 247.434,98.994 263.255,96.234 247.434,93.474 
		263.479,94.179 248.621,88.082 264.139,92.221 250.939,83.072 265.204,90.45 254.279,78.678 266.625,88.949 258.487,75.104 
		268.336,87.79 263.364,72.518 270.256,87.025 268.683,71.042 272.295,86.69 274.195,70.743 274.359,86.802 279.642,71.636 
		276.35,87.355 284.771,73.679 278.176,88.323 289.339,76.777 279.751,89.661 293.136,80.785 281.002,91.306 295.982,85.515 
		281.87,93.182 297.744,90.746 282.314,95.2 298.341,96.234 282.314,97.267 	"/>
	<polygon fill="#FFFFFF" points="298.315,162.848 276.197,163.229 297.675,168.523 276.027,163.973 295.789,173.913 275.696,164.66 
		292.751,178.748 275.221,165.256 288.713,182.786 274.625,165.731 283.878,185.824 273.938,166.062 278.488,187.711 
		273.194,166.232 272.813,188.35 272.431,166.232 267.138,187.711 271.688,166.062 261.748,185.824 271.001,165.731 
		256.912,182.786 270.405,165.256 252.874,178.748 269.929,164.66 249.836,173.913 269.599,163.973 247.95,168.523 269.429,163.229 
		247.311,162.848 269.429,162.466 247.95,157.173 269.599,161.723 249.836,151.783 269.929,161.036 252.874,146.947 270.405,160.44 
		256.912,142.909 271.001,159.964 261.748,139.871 271.688,159.633 267.138,137.985 272.431,159.464 272.813,137.346 
		273.194,159.464 278.488,137.985 273.938,159.633 283.878,139.871 274.625,159.964 288.713,142.91 275.221,160.44 292.751,146.948 
		275.696,161.036 295.789,151.783 276.027,161.723 297.676,157.173 276.197,162.466 	"/>
	<polygon fill="none" stroke="#000000" stroke-width="0.765" stroke-linecap="round" stroke-miterlimit="10" points="
		298.315,162.848 276.197,163.229 297.676,168.523 276.027,163.973 295.789,173.913 275.696,164.66 292.751,178.748 
		275.221,165.256 288.713,182.786 274.625,165.731 283.878,185.825 273.938,166.062 278.487,187.711 273.194,166.232 
		272.813,188.35 272.431,166.232 267.138,187.711 271.688,166.062 261.748,185.825 271.001,165.731 256.912,182.786 
		270.405,165.256 252.874,178.748 269.929,164.66 249.836,173.913 269.598,163.973 247.95,168.523 269.429,163.229 247.311,162.848 
		269.429,162.467 247.95,157.173 269.598,161.723 249.836,151.783 269.929,161.036 252.874,146.947 270.405,160.44 256.913,142.91 
		271.001,159.964 261.748,139.871 271.688,159.633 267.138,137.985 272.431,159.464 272.813,137.346 273.194,159.464 
		278.488,137.985 273.938,159.633 283.878,139.871 274.625,159.964 288.713,142.91 275.221,160.44 292.751,146.948 275.696,161.036 
		295.789,151.783 276.027,161.723 297.676,157.173 276.197,162.467 	"/>
	<polygon fill="#FFFFFF" points="295.525,229.462 287.874,231.1 294.994,234.345 287.169,234.299 293.426,238.999 285.794,237.272 
		290.894,243.207 283.811,239.88 287.517,246.773 281.315,242.001 283.452,249.529 278.42,243.536 278.889,251.347 275.264,244.412 
		274.042,252.141 271.993,244.589 269.138,251.875 268.76,244.059 264.406,250.561 265.717,242.847 260.067,248.261 
		263.005,241.008 256.324,245.081 260.752,238.63 253.351,241.172 259.063,235.823 251.289,236.714 258.017,232.719 
		250.233,231.918 257.663,229.462 250.233,227.006 258.017,226.205 251.289,222.21 259.063,223.101 253.351,217.752 
		260.752,220.294 256.324,213.843 263.005,217.916 260.067,210.663 265.717,216.077 264.406,208.363 268.76,214.865 
		269.138,207.049 271.993,214.335 274.042,206.783 275.264,214.512 278.889,207.577 278.42,215.388 283.451,209.395 
		281.315,216.923 287.517,212.151 283.811,219.044 290.894,215.717 285.794,221.652 293.426,219.925 287.169,224.625 
		294.994,224.579 287.874,227.824 295.525,229.462 287.874,231.1 	"/>
	<polygon fill="none" stroke="#000000" stroke-width="0.765" stroke-linecap="round" stroke-miterlimit="10" points="
		295.525,229.462 287.873,231.1 294.994,234.345 287.169,234.299 293.426,238.999 285.794,237.272 290.894,243.207 283.811,239.88 
		287.517,246.773 281.314,242.001 283.452,249.529 278.42,243.536 278.889,251.347 275.264,244.412 274.042,252.141 
		271.993,244.589 269.138,251.875 268.76,244.059 264.406,250.561 265.717,242.847 260.067,248.261 263.005,241.008 
		256.324,245.081 260.752,238.63 253.351,241.172 259.063,235.823 251.289,236.714 258.018,232.719 250.233,231.918 
		257.663,229.462 250.233,227.006 258.018,226.205 251.289,222.21 259.063,223.101 253.351,217.753 260.752,220.294 
		256.324,213.843 263.005,217.916 260.067,210.663 265.717,216.077 264.406,208.363 268.76,214.865 269.138,207.049 
		271.993,214.335 274.042,206.783 275.264,214.512 278.889,207.577 278.42,215.388 283.451,209.395 281.314,216.923 
		287.517,212.151 283.811,219.044 290.894,215.717 285.794,221.652 293.426,219.925 287.169,224.625 294.994,224.579 
		287.873,227.824 295.525,229.462 287.873,231.1 	"/>
	<polygon fill="#FFFFFF" points="300.873,296.076 274.889,297.585 281.484,322.763 272.02,298.517 250.111,312.57 270.247,296.076 
		250.111,279.582 272.02,293.636 281.484,269.389 274.889,294.568 	"/>
	<polygon fill="none" stroke="#000000" stroke-width="0.765" stroke-linecap="round" stroke-miterlimit="10" points="
		300.873,296.076 274.889,297.585 281.484,322.763 272.02,298.517 250.111,312.57 270.247,296.076 250.111,279.583 272.02,293.636 
		281.484,269.389 274.889,294.568 	"/>
	<polygon fill="#FFFFFF" points="293.589,362.69 281.813,364.047 292.666,368.814 281.014,366.64 289.979,374.394 279.485,368.882 
		285.767,378.934 277.364,370.573 280.403,382.031 274.838,371.564 274.365,383.409 272.133,371.767 268.19,382.946 
		269.487,371.163 262.425,380.683 267.138,369.807 257.583,376.822 265.292,367.818 254.094,371.705 264.115,365.373 
		252.268,365.787 263.711,362.69 252.268,359.594 264.115,360.007 254.094,353.676 265.292,357.563 257.583,348.559 
		267.138,355.574 262.425,344.697 269.487,354.217 268.19,342.435 272.133,353.613 274.365,341.972 274.838,353.816 280.403,343.35 
		277.364,354.807 285.767,346.447 279.485,356.499 289.979,350.987 281.014,358.741 292.666,356.566 281.813,361.334 
		293.589,362.69 281.813,364.047 	"/>
	<polygon fill="none" stroke="#000000" stroke-width="0.765" stroke-linecap="round" stroke-miterlimit="10" points="
		293.589,362.69 281.813,364.047 292.666,368.814 281.014,366.64 289.979,374.394 279.485,368.882 285.767,378.934 277.364,370.573 
		280.403,382.031 274.838,371.565 274.365,383.409 272.133,371.767 268.19,382.946 269.487,371.164 262.425,380.683 
		267.138,369.807 257.583,376.822 265.292,367.818 254.094,371.705 264.115,365.373 252.268,365.787 263.71,362.69 252.268,359.594 
		264.115,360.007 254.094,353.676 265.292,357.563 257.583,348.559 267.138,355.574 262.425,344.697 269.487,354.217 
		268.19,342.435 272.133,353.614 274.365,341.972 274.838,353.816 280.403,343.35 277.364,354.807 285.767,346.447 279.485,356.499 
		289.979,350.987 281.014,358.741 292.666,356.566 281.813,361.334 293.589,362.69 281.813,364.047 	"/>
	<polygon fill="#FFFFFF" points="305.218,429.305 282.86,436.605 282.827,460.124 268.975,441.116 246.597,448.352 260.393,429.305 
		246.597,410.257 268.975,417.493 282.827,398.485 282.86,422.004 	"/>
	<polygon fill="none" stroke="#000000" stroke-width="0.765" stroke-linecap="round" stroke-miterlimit="10" points="
		305.218,429.305 282.86,436.605 282.827,460.124 268.975,441.116 246.597,448.352 260.393,429.305 246.597,410.257 
		268.975,417.493 282.827,398.485 282.86,422.004 	"/>
	<polygon fill="#FFFFFF" points="304.223,495.919 283.755,497.848 302.328,506.661 282.435,501.474 296.874,516.109 279.955,504.43 
		288.518,523.12 276.613,506.36 278.267,526.851 272.813,507.03 267.359,526.851 269.013,506.36 257.108,523.12 265.671,504.43 
		248.751,516.109 263.19,501.474 243.297,506.661 261.871,497.848 241.403,495.919 261.871,493.989 243.297,485.176 263.19,490.363 
		248.751,475.729 265.671,487.407 257.108,468.717 269.013,485.478 267.359,464.986 272.813,484.808 278.267,464.986 
		276.613,485.478 288.518,468.717 279.955,487.407 296.874,475.729 282.435,490.363 302.328,485.176 283.755,493.989 
		304.223,495.919 283.755,497.848 	"/>
	<polygon fill="none" stroke="#000000" stroke-width="0.765" stroke-linecap="round" stroke-miterlimit="10" points="
		304.223,495.919 283.755,497.848 302.328,506.661 282.435,501.474 296.874,516.109 279.955,504.43 288.518,523.12 276.613,506.36 
		278.267,526.851 272.813,507.03 267.358,526.851 269.013,506.36 257.108,523.12 265.671,504.43 248.751,516.109 263.19,501.474 
		243.297,506.661 261.871,497.848 241.403,495.919 261.871,493.989 243.297,485.176 263.19,490.363 248.751,475.729 
		265.671,487.407 257.108,468.717 269.013,485.478 267.358,464.986 272.813,484.808 278.267,464.986 276.613,485.478 
		288.518,468.717 279.955,487.407 296.874,475.729 282.435,490.363 302.328,485.176 283.755,493.989 304.223,495.919 
		283.755,497.848 	"/>
	<polygon fill="#FFFFFF" points="293.215,562.533 277.239,563.624 290.878,572.014 276.225,565.556 284.403,579.324 
		274.429,566.795 275.272,582.787 272.263,567.058 265.578,581.61 270.223,566.284 257.541,576.062 268.776,564.651 
		253.003,567.416 268.254,562.533 253.003,557.65 268.776,560.414 257.541,549.003 270.223,558.781 265.578,543.456 
		272.263,558.007 275.272,542.279 274.429,558.27 284.403,545.742 276.225,559.51 290.878,553.051 277.239,561.442 	"/>
	<polygon fill="none" stroke="#000000" stroke-width="0.765" stroke-linecap="round" stroke-miterlimit="10" points="
		293.215,562.533 277.239,563.624 290.878,572.014 276.225,565.556 284.403,579.324 274.429,566.795 275.272,582.787 
		272.263,567.058 265.578,581.61 270.223,566.285 257.541,576.062 268.776,564.651 253.003,567.416 268.254,562.533 253.003,557.65 
		268.776,560.414 257.541,549.003 270.223,558.781 265.578,543.456 272.263,558.007 275.272,542.279 274.429,558.27 
		284.403,545.742 276.225,559.51 290.878,553.051 277.239,561.442 	"/>
	<polygon fill="#FFFFFF" points="298.194,629.147 276.781,629.579 297.601,634.603 276.595,630.422 295.848,639.804 
		276.233,631.205 293.019,644.507 275.711,631.892 289.244,648.492 275.053,632.451 284.702,651.572 274.29,632.855 
		279.603,653.603 273.459,633.086 274.187,654.491 272.597,633.133 268.707,654.194 271.745,632.993 263.418,652.726 
		270.943,632.674 258.569,650.155 270.229,632.189 254.386,646.602 269.635,631.563 251.065,642.232 269.19,630.823 248.76,637.251 
		268.915,630.005 247.58,631.891 268.821,629.147 247.58,626.403 268.915,628.289 248.76,621.043 269.19,627.471 251.065,616.062 
		269.635,626.732 254.386,611.692 270.229,626.105 258.569,608.139 270.943,625.62 263.418,605.568 271.745,625.301 268.707,604.1 
		272.597,625.161 274.187,603.803 273.459,625.208 279.603,604.691 274.29,625.439 284.702,606.722 275.053,625.843 
		289.244,609.802 275.711,626.402 293.019,613.787 276.233,627.089 295.848,618.49 276.595,627.872 297.601,623.691 
		276.781,628.715 298.194,629.147 276.781,629.579 	"/>
	<polygon fill="none" stroke="#000000" stroke-width="0.765" stroke-linecap="round" stroke-miterlimit="10" points="
		298.194,629.147 276.781,629.579 297.601,634.603 276.595,630.422 295.848,639.804 276.233,631.205 293.019,644.507 
		275.711,631.892 289.244,648.492 275.053,632.451 284.702,651.572 274.29,632.855 279.603,653.603 273.459,633.086 
		274.187,654.491 272.597,633.133 268.707,654.194 271.745,632.993 263.418,652.726 270.943,632.674 258.569,650.155 
		270.229,632.189 254.386,646.602 269.635,631.563 251.065,642.233 269.19,630.823 248.76,637.251 268.915,630.005 247.58,631.891 
		268.821,629.147 247.58,626.403 268.915,628.289 248.76,621.043 269.19,627.471 251.065,616.062 269.635,626.732 254.386,611.692 
		270.229,626.105 258.569,608.139 270.943,625.62 263.418,605.568 271.745,625.301 268.707,604.1 272.597,625.161 274.187,603.803 
		273.459,625.208 279.603,604.691 274.29,625.439 284.702,606.722 275.053,625.843 289.244,609.802 275.711,626.402 
		293.019,613.787 276.233,627.089 295.848,618.49 276.595,627.872 297.601,623.691 276.781,628.716 298.194,629.147 
		276.781,629.579 	"/>
	<polygon fill="#FFFFFF" points="306.036,695.761 283.137,697.582 304.033,707.124 281.892,701.003 298.263,717.117 
		279.551,703.792 289.424,724.533 276.398,705.612 278.582,728.48 272.813,706.244 267.044,728.48 269.227,705.612 256.201,724.533 
		266.074,703.792 247.362,717.117 263.734,701.003 241.593,707.124 262.489,697.582 239.589,695.761 262.489,693.941 
		241.593,684.398 263.734,690.52 247.362,674.406 266.074,687.731 256.201,666.989 269.227,685.91 267.044,663.043 272.813,685.278 
		278.582,663.043 276.398,685.91 289.424,666.989 279.551,687.731 298.263,674.406 281.892,690.52 304.033,684.398 283.137,693.941 
		306.036,695.761 283.137,697.582 	"/>
	<polygon fill="none" stroke="#000000" stroke-width="0.765" stroke-linecap="round" stroke-miterlimit="10" points="
		306.036,695.761 283.137,697.582 304.033,707.124 281.892,701.003 298.263,717.117 279.551,703.792 289.424,724.533 
		276.398,705.612 278.582,728.48 272.813,706.244 267.044,728.48 269.227,705.612 256.201,724.533 266.074,703.792 247.362,717.117 
		263.734,701.003 241.593,707.124 262.489,697.582 239.589,695.761 262.489,693.941 241.593,684.398 263.734,690.52 
		247.362,674.406 266.074,687.731 256.201,666.989 269.227,685.91 267.044,663.043 272.813,685.278 278.582,663.043 276.398,685.91 
		289.424,666.989 279.551,687.731 298.263,674.406 281.892,690.52 304.033,684.398 283.137,693.941 306.036,695.761 
		283.137,697.582 	"/>
	<polygon fill="#FFFFFF" points="369.352,96.234 349.165,97.464 368.412,103.676 348.554,99.847 365.651,110.65 347.368,102.003 
		361.242,116.719 345.684,103.797 355.462,121.5 343.606,105.115 348.674,124.694 341.266,105.876 341.306,126.1 338.811,106.03 
		333.82,125.629 336.394,105.569 326.685,123.311 334.167,104.521 320.352,119.291 332.272,102.953 315.217,113.823 
		330.825,100.962 311.603,107.25 329.92,98.675 309.738,99.984 329.611,96.234 309.738,92.483 329.92,93.793 311.603,85.217 
		330.825,91.505 315.217,78.644 332.272,89.514 320.352,73.176 334.167,87.946 326.685,69.157 336.394,86.898 333.82,66.839 
		338.811,86.437 341.306,66.368 341.266,86.592 348.674,67.773 343.606,87.352 355.462,70.967 345.684,88.67 361.242,75.749 
		347.368,90.464 365.651,81.817 348.554,92.62 368.412,88.792 349.165,95.003 	"/>
	<polygon fill="none" stroke="#000000" stroke-width="0.765" stroke-linecap="round" stroke-miterlimit="10" points="
		369.352,96.234 349.165,97.464 368.412,103.676 348.553,99.847 365.651,110.65 347.368,102.003 361.241,116.719 345.684,103.797 
		355.462,121.5 343.606,105.115 348.674,124.694 341.266,105.876 341.306,126.1 338.811,106.03 333.82,125.629 336.394,105.569 
		326.685,123.311 334.167,104.521 320.352,119.291 332.272,102.953 315.217,113.823 330.825,100.963 311.603,107.25 329.92,98.675 
		309.738,99.984 329.611,96.234 309.738,92.483 329.92,93.793 311.603,85.217 330.825,91.505 315.217,78.644 332.272,89.514 
		320.352,73.176 334.167,87.946 326.685,69.157 336.394,86.898 333.82,66.839 338.811,86.437 341.306,66.368 341.266,86.592 
		348.674,67.773 343.606,87.352 355.462,70.967 345.684,88.67 361.241,75.748 347.368,90.464 365.651,81.817 348.553,92.62 
		368.412,88.792 349.165,95.003 	"/>
	<polygon fill="#FFFFFF" points="362.96,162.848 340.207,162.942 362.277,168.48 340.161,163.126 360.265,173.784 340.073,163.294 
		357.042,178.453 339.948,163.436 352.795,182.215 339.792,163.543 347.772,184.852 339.615,163.61 342.264,186.21 339.427,163.633 
		336.59,186.21 339.239,163.61 331.082,184.852 339.062,163.543 326.059,182.215 338.906,163.436 321.812,178.453 338.781,163.294 
		318.589,173.784 338.693,163.126 316.577,168.48 338.647,162.942 315.894,162.848 338.647,162.753 316.577,157.216 
		338.693,162.569 318.589,151.911 338.781,162.402 321.812,147.242 338.906,162.26 326.059,143.48 339.062,162.152 331.082,140.844 
		339.239,162.085 336.59,139.486 339.427,162.062 342.264,139.486 339.615,162.085 347.772,140.844 339.792,162.152 352.796,143.48 
		339.948,162.26 357.042,147.242 340.073,162.402 360.265,151.911 340.161,162.569 362.277,157.216 340.207,162.753 	"/>
	<polygon fill="none" stroke="#000000" stroke-width="0.765" stroke-linecap="round" stroke-miterlimit="10" points="
		362.96,162.848 340.207,162.943 362.276,168.48 340.161,163.126 360.265,173.784 340.073,163.294 357.042,178.453 339.948,163.436 
		352.795,182.215 339.792,163.543 347.772,184.852 339.615,163.61 342.264,186.21 339.427,163.633 336.59,186.21 339.239,163.61 
		331.082,184.852 339.062,163.543 326.058,182.215 338.906,163.436 321.812,178.453 338.781,163.294 318.589,173.784 
		338.693,163.126 316.577,168.48 338.647,162.943 315.894,162.848 338.647,162.753 316.577,157.216 338.693,162.569 
		318.589,151.911 338.781,162.402 321.812,147.242 338.906,162.26 326.058,143.48 339.062,162.152 331.082,140.844 339.239,162.085 
		336.59,139.486 339.427,162.062 342.264,139.486 339.615,162.085 347.772,140.844 339.792,162.152 352.795,143.48 339.948,162.26 
		357.042,147.242 340.073,162.402 360.265,151.911 340.161,162.569 362.276,157.216 340.207,162.753 	"/>
	<polygon fill="#FFFFFF" points="357.034,229.462 351.072,231.937 355.512,236.623 349.058,236.459 351.209,242.547 
		345.379,239.772 344.868,246.207 340.671,241.302 337.587,246.973 335.748,240.784 330.623,244.71 331.461,238.309 
		325.182,239.811 328.551,234.304 322.204,233.123 327.522,229.462 322.204,225.801 328.551,224.62 325.182,219.113 
		331.461,220.615 330.623,214.214 335.748,218.14 337.587,211.951 340.671,217.622 344.868,212.716 345.379,219.152 
		351.209,216.377 349.058,222.465 355.512,222.3 351.072,226.987 	"/>
	<polygon fill="none" stroke="#000000" stroke-width="0.765" stroke-linecap="round" stroke-miterlimit="10" points="
		357.034,229.462 351.072,231.937 355.512,236.623 349.058,236.459 351.208,242.547 345.379,239.772 344.868,246.207 
		340.671,241.302 337.587,246.973 335.748,240.784 330.623,244.71 331.461,238.309 325.182,239.811 328.551,234.304 
		322.204,233.123 327.522,229.462 322.204,225.801 328.551,224.62 325.182,219.113 331.461,220.615 330.623,214.214 335.748,218.14 
		337.587,211.951 340.671,217.622 344.868,212.717 345.379,219.152 351.208,216.377 349.058,222.465 355.512,222.301 
		351.072,226.987 	"/>
	<polygon fill="#FFFFFF" points="367.916,296.076 342.056,296.781 364.099,310.32 341.352,298.001 353.671,320.748 340.132,298.706 
		339.427,324.565 338.722,298.706 325.183,320.748 337.502,298.001 314.755,310.32 336.797,296.781 310.938,296.076 
		336.797,295.372 314.755,281.832 337.502,294.151 325.183,271.404 338.722,293.447 339.427,267.587 340.132,293.447 
		353.671,271.404 341.352,294.151 364.099,281.832 342.056,295.372 367.916,296.076 342.056,296.781 	"/>
	<polygon fill="none" stroke="#000000" stroke-width="0.765" stroke-linecap="round" stroke-miterlimit="10" points="
		367.916,296.076 342.056,296.781 364.099,310.32 341.352,298.001 353.671,320.748 340.132,298.706 339.427,324.565 
		338.722,298.706 325.183,320.748 337.502,298.001 314.755,310.32 336.797,296.781 310.938,296.076 336.797,295.372 
		314.755,281.832 337.502,294.151 325.183,271.404 338.722,293.447 339.427,267.587 340.131,293.447 353.671,271.404 
		341.352,294.151 364.099,281.832 342.056,295.372 367.916,296.076 342.056,296.781 	"/>
	<polygon fill="#FFFFFF" points="364.844,362.69 342.651,363.098 364.045,369.011 342.449,363.887 361.7,374.935 342.056,364.601 
		357.955,380.089 341.499,365.194 353.046,384.15 340.811,365.631 347.281,386.863 340.036,365.883 341.023,388.057 
		339.223,365.934 334.664,387.657 338.423,365.781 328.605,385.688 337.686,365.434 323.226,382.274 337.058,364.915 
		318.865,377.63 336.579,364.256 315.795,372.047 336.279,363.499 314.211,365.876 336.177,362.69 314.211,359.505 336.279,361.882 
		315.795,353.334 336.579,361.125 318.865,347.751 337.058,360.466 323.226,343.107 337.686,359.946 328.605,339.693 
		338.423,359.599 334.664,337.724 339.223,359.447 341.023,337.324 340.036,359.498 347.281,338.518 340.811,359.75 353.046,341.23 
		341.499,360.186 357.955,345.292 342.056,360.78 361.7,350.446 342.449,361.494 364.045,356.37 342.651,362.283 	"/>
	<polygon fill="none" stroke="#000000" stroke-width="0.765" stroke-linecap="round" stroke-miterlimit="10" points="
		364.843,362.69 342.651,363.098 364.045,369.011 342.449,363.887 361.7,374.935 342.056,364.601 357.955,380.089 341.499,365.195 
		353.046,384.15 340.811,365.631 347.281,386.863 340.036,365.883 341.023,388.057 339.223,365.934 334.664,387.657 
		338.423,365.781 328.605,385.688 337.686,365.434 323.226,382.274 337.058,364.915 318.865,377.63 336.579,364.256 
		315.795,372.047 336.279,363.499 314.211,365.876 336.177,362.69 314.211,359.505 336.279,361.882 315.795,353.334 
		336.579,361.125 318.865,347.751 337.058,360.466 323.226,343.107 337.686,359.946 328.605,339.693 338.423,359.599 
		334.664,337.724 339.223,359.447 341.023,337.324 340.036,359.498 347.281,338.518 340.811,359.75 353.046,341.231 
		341.499,360.186 357.955,345.292 342.056,360.78 361.7,350.446 342.449,361.494 364.045,356.37 342.651,362.283 	"/>
	<polygon fill="#FFFFFF" points="364.949,429.305 349.177,436.389 347.314,453.577 335.703,440.767 318.779,444.306 
		327.375,429.305 318.779,414.303 335.703,417.842 347.314,405.032 349.177,422.22 	"/>
	<polygon fill="none" stroke="#000000" stroke-width="0.765" stroke-linecap="round" stroke-miterlimit="10" points="
		364.949,429.305 349.177,436.389 347.314,453.577 335.703,440.767 318.779,444.306 327.375,429.305 318.779,414.303 
		335.703,417.842 347.314,405.032 349.177,422.22 	"/>
	<polygon fill="#FFFFFF" points="356.802,495.919 344.145,499.346 344.796,512.444 337.625,501.465 325.37,506.132 333.595,495.919 
		325.37,485.706 337.625,490.372 344.796,479.394 344.145,492.491 	"/>
	<polygon fill="none" stroke="#000000" stroke-width="0.765" stroke-linecap="round" stroke-miterlimit="10" points="
		356.802,495.919 344.145,499.347 344.796,512.444 337.625,501.465 325.37,506.132 333.595,495.919 325.37,485.706 337.625,490.372 
		344.796,479.394 344.145,492.491 	"/>
	<polygon fill="#FFFFFF" points="369.521,562.533 339.597,562.561 367.89,572.304 339.579,562.615 363.175,581.017 339.544,562.66 
		355.887,587.726 339.496,562.691 346.815,591.706 339.441,562.705 336.942,592.524 339.385,562.7 327.338,590.092 339.333,562.677 
		319.045,584.674 339.291,562.639 312.96,576.856 339.264,562.589 309.744,567.486 339.254,562.533 309.744,557.58 339.264,562.477 
		312.96,548.21 339.291,562.427 319.045,540.392 339.333,562.388 327.338,534.974 339.385,562.366 336.942,532.542 339.441,562.361 
		346.815,533.36 339.496,562.375 355.887,537.339 339.544,562.406 363.175,544.049 339.579,562.451 367.89,552.761 339.597,562.505 
			"/>
	<polygon fill="none" stroke="#000000" stroke-width="0.765" stroke-linecap="round" stroke-miterlimit="10" points="
		369.521,562.533 339.597,562.561 367.89,572.304 339.579,562.615 363.175,581.017 339.544,562.66 355.887,587.726 339.496,562.691 
		346.815,591.706 339.441,562.705 336.942,592.524 339.385,562.7 327.338,590.092 339.333,562.677 319.045,584.674 339.291,562.639 
		312.96,576.856 339.264,562.589 309.744,567.486 339.254,562.533 309.744,557.58 339.264,562.477 312.96,548.21 339.291,562.427 
		319.045,540.392 339.333,562.388 327.338,534.974 339.385,562.366 336.942,532.542 339.441,562.361 346.815,533.36 
		339.496,562.375 355.887,537.339 339.544,562.406 363.175,544.049 339.579,562.451 367.89,552.761 339.597,562.505 	"/>
	<polygon fill="#FFFFFF" points="369.249,629.147 351.086,637.618 348.642,657.509 334.974,642.853 315.301,646.676 
		325.016,629.147 315.301,611.618 334.974,615.441 348.642,600.785 351.086,620.676 	"/>
	<polygon fill="none" stroke="#000000" stroke-width="0.765" stroke-linecap="round" stroke-miterlimit="10" points="
		369.249,629.147 351.086,637.618 348.642,657.509 334.974,642.853 315.301,646.676 325.016,629.147 315.301,611.618 
		334.974,615.441 348.642,600.785 351.086,620.676 	"/>
	<polygon fill="#FFFFFF" points="358.827,695.761 343.711,696.302 358.217,700.586 343.442,697.351 356.427,705.107 342.92,698.299 
		353.569,709.041 342.179,699.088 349.822,712.141 341.265,699.668 345.422,714.212 340.236,700.003 340.645,715.123 
		339.156,700.071 335.792,714.817 338.093,699.868 331.167,713.315 337.113,699.407 327.061,710.709 336.279,698.717 
		323.732,707.164 335.643,697.841 321.389,702.903 335.245,696.835 320.18,698.193 335.109,695.761 320.18,693.33 335.245,694.687 
		321.389,688.62 335.643,693.681 323.732,684.358 336.279,692.805 327.061,680.813 337.113,692.116 331.167,678.208 
		338.093,691.655 335.792,676.705 339.156,691.452 340.645,676.4 340.236,691.52 345.422,677.311 341.265,691.854 349.822,679.381 
		342.179,692.434 353.569,682.481 342.92,693.223 356.427,686.415 343.442,694.172 358.217,690.937 343.711,695.22 	"/>
	<polygon fill="none" stroke="#000000" stroke-width="0.765" stroke-linecap="round" stroke-miterlimit="10" points="
		358.827,695.761 343.711,696.302 358.217,700.586 343.442,697.351 356.427,705.107 342.92,698.299 353.569,709.041 
		342.179,699.088 349.822,712.141 341.265,699.668 345.422,714.212 340.236,700.003 340.645,715.123 339.156,700.071 
		335.792,714.817 338.093,699.868 331.167,713.315 337.113,699.407 327.061,710.709 336.279,698.717 323.732,707.164 
		335.643,697.841 321.389,702.903 335.245,696.835 320.18,698.193 335.109,695.761 320.18,693.33 335.245,694.687 321.389,688.62 
		335.643,693.681 323.732,684.358 336.279,692.805 327.061,680.813 337.113,692.116 331.167,678.208 338.093,691.655 
		335.792,676.705 339.156,691.452 340.645,676.4 340.236,691.52 345.422,677.311 341.265,691.854 349.822,679.381 342.179,692.434 
		353.569,682.481 342.92,693.223 356.427,686.415 343.442,694.172 358.217,690.937 343.711,695.22 	"/>
	<polygon fill="#FFFFFF" points="427.656,162.848 412.84,167.787 412.72,183.405 403.444,170.84 388.554,175.553 397.637,162.848 
		388.554,150.143 403.444,154.855 412.72,142.291 412.84,157.908 	"/>
	<polygon fill="none" stroke="#000000" stroke-width="0.765" stroke-linecap="round" stroke-miterlimit="10" points="
		427.656,162.848 412.84,167.787 412.72,183.405 403.444,170.84 388.554,175.553 397.637,162.848 388.554,150.143 403.444,154.855 
		412.72,142.291 412.84,157.908 	"/>
	<polygon fill="#FFFFFF" points="425.851,229.462 418.978,231.165 425.176,234.589 418.096,234.455 423.197,239.367 
		416.393,237.405 420.049,243.469 413.984,239.814 415.946,246.618 411.034,241.517 411.168,248.596 407.744,242.398 
		406.041,249.271 404.338,242.398 400.914,248.596 401.048,241.517 396.136,246.618 398.098,239.814 392.034,243.469 
		395.689,237.405 388.886,239.367 393.986,234.455 386.907,234.589 393.105,231.165 386.232,229.462 393.105,227.759 
		386.907,224.335 393.986,224.469 388.886,219.557 395.689,221.519 392.034,215.455 398.098,219.11 396.136,212.307 
		401.048,217.407 400.914,210.327 404.338,216.525 406.041,209.653 407.744,216.525 411.168,210.327 411.034,217.407 
		415.946,212.306 413.984,219.11 420.049,215.455 416.393,221.519 423.197,219.557 418.096,224.469 425.176,224.335 
		418.978,227.759 425.851,229.462 418.978,231.165 	"/>
	<polygon fill="none" stroke="#000000" stroke-width="0.765" stroke-linecap="round" stroke-miterlimit="10" points="
		425.851,229.462 418.978,231.165 425.176,234.589 418.096,234.455 423.197,239.367 416.393,237.405 420.048,243.469 
		413.984,239.814 415.946,246.618 411.034,241.517 411.168,248.596 407.744,242.398 406.041,249.271 404.338,242.398 
		400.914,248.596 401.048,241.517 396.136,246.618 398.098,239.814 392.034,243.469 395.689,237.405 388.886,239.367 
		393.986,234.455 386.907,234.589 393.105,231.165 386.232,229.462 393.105,227.759 386.907,224.335 393.986,224.469 
		388.886,219.557 395.689,221.519 392.034,215.455 398.098,219.11 396.136,212.307 401.048,217.407 400.914,210.328 
		404.338,216.525 406.041,209.653 407.744,216.525 411.168,210.328 411.034,217.407 415.946,212.307 413.984,219.11 
		420.048,215.455 416.393,221.519 423.197,219.557 418.096,224.469 425.176,224.335 418.978,227.759 425.851,229.462 
		418.978,231.165 	"/>
	<polygon fill="#FFFFFF" points="427.767,296.076 412.612,297.304 426.3,303.924 411.725,299.595 422.097,310.713 410.07,301.411 
		415.725,315.524 407.87,302.506 408.046,317.71 405.424,302.732 400.096,316.973 403.062,302.06 392.948,313.414 401.101,300.58 
		387.569,307.513 399.808,298.491 384.685,300.068 399.357,296.076 384.685,292.084 399.808,293.661 387.569,284.639 
		401.101,291.573 392.948,278.738 403.062,290.092 400.096,275.18 405.424,289.42 408.046,274.443 407.87,289.647 415.725,276.628 
		410.07,290.742 422.097,281.44 411.725,292.557 426.3,288.228 412.612,294.848 	"/>
	<polygon fill="none" stroke="#000000" stroke-width="0.765" stroke-linecap="round" stroke-miterlimit="10" points="
		427.767,296.076 412.612,297.304 426.3,303.924 411.724,299.595 422.097,310.713 410.069,301.411 415.725,315.524 407.871,302.506 
		408.046,317.71 405.424,302.732 400.096,316.973 403.062,302.06 392.948,313.414 401.101,300.58 387.569,307.513 399.808,298.491 
		384.685,300.068 399.357,296.076 384.685,292.084 399.808,293.661 387.569,284.639 401.101,291.573 392.948,278.738 
		403.062,290.092 400.096,275.18 405.424,289.42 408.046,274.443 407.871,289.647 415.725,276.628 410.069,290.742 422.097,281.439 
		411.724,292.557 426.3,288.228 412.612,294.848 	"/>
	<polygon fill="#FFFFFF" points="436.391,362.69 421.834,364.769 435.357,370.546 420.758,368.786 432.325,377.865 418.679,372.387 
		427.502,384.151 415.738,375.328 421.216,388.974 412.137,377.407 413.896,392.006 408.12,378.483 406.041,393.04 403.962,378.483 
		398.186,392.006 399.945,377.407 390.866,388.974 396.344,375.328 384.581,384.151 393.404,372.387 379.757,377.865 
		391.325,368.786 376.725,370.546 390.248,364.769 375.691,362.69 390.248,360.611 376.725,354.835 391.325,356.595 
		379.757,347.515 393.404,352.993 384.581,341.23 396.344,350.053 390.866,336.407 399.945,347.974 398.186,333.375 
		403.962,346.897 406.041,332.34 408.12,346.897 413.896,333.375 412.137,347.974 421.216,336.407 415.738,350.053 427.502,341.23 
		418.679,352.993 432.325,347.515 420.758,356.595 435.357,354.835 421.834,360.611 436.391,362.69 421.834,364.769 	"/>
	<polygon fill="none" stroke="#000000" stroke-width="0.765" stroke-linecap="round" stroke-miterlimit="10" points="
		436.391,362.69 421.834,364.77 435.357,370.546 420.758,368.786 432.325,377.865 418.679,372.387 427.502,384.151 415.738,375.328 
		421.216,388.974 412.137,377.407 413.896,392.006 408.12,378.483 406.041,393.04 403.962,378.483 398.186,392.006 399.945,377.407 
		390.866,388.974 396.344,375.328 384.581,384.151 393.404,372.387 379.757,377.865 391.325,368.786 376.725,370.546 
		390.248,364.77 375.691,362.69 390.248,360.611 376.725,354.835 391.325,356.595 379.757,347.515 393.404,352.993 384.581,341.23 
		396.344,350.053 390.866,336.407 399.945,347.974 398.186,333.375 403.962,346.898 406.041,332.34 408.12,346.898 413.896,333.375 
		412.137,347.974 421.216,336.407 415.738,350.053 427.502,341.23 418.679,352.993 432.325,347.515 420.758,356.595 
		435.357,354.835 421.834,360.611 436.391,362.69 421.834,364.77 	"/>
	<polygon fill="#FFFFFF" points="435.535,429.305 418.386,430.647 434.845,435.645 417.808,433.269 432.809,441.689 
		416.681,435.706 429.521,447.153 415.056,437.844 425.135,451.783 413.01,439.582 419.856,455.363 410.637,440.84 413.932,457.723 
		408.05,441.558 407.638,458.755 405.369,441.704 401.27,458.41 402.719,441.269 395.124,456.703 400.225,440.275 389.49,453.716 
		398.002,438.768 384.629,449.587 396.156,436.819 380.769,444.51 394.772,434.518 378.091,438.722 393.914,431.974 376.72,432.493 
		393.624,429.305 376.72,426.116 393.914,426.635 378.091,419.887 394.772,424.091 380.769,414.099 396.156,421.79 384.629,409.022 
		398.002,419.841 389.49,404.893 400.225,418.334 395.124,401.906 402.719,417.34 401.27,400.199 405.369,416.905 407.638,399.854 
		408.05,417.051 413.931,400.886 410.637,417.769 419.856,403.247 413.01,419.027 425.135,406.826 415.056,420.765 429.521,411.456 
		416.681,422.903 432.809,416.92 417.808,425.34 434.845,422.964 418.386,427.962 435.535,429.305 418.386,430.647 	"/>
	<polygon fill="none" stroke="#000000" stroke-width="0.765" stroke-linecap="round" stroke-miterlimit="10" points="
		435.535,429.305 418.386,430.647 434.845,435.645 417.808,433.269 432.809,441.689 416.681,435.706 429.521,447.153 
		415.056,437.844 425.135,451.783 413.01,439.582 419.856,455.362 410.637,440.84 413.932,457.723 408.05,441.558 407.638,458.755 
		405.369,441.704 401.27,458.41 402.719,441.269 395.124,456.703 400.225,440.275 389.49,453.716 398.002,438.768 384.629,449.587 
		396.156,436.819 380.769,444.51 394.772,434.518 378.091,438.722 393.914,431.974 376.72,432.493 393.624,429.305 376.72,426.116 
		393.914,426.635 378.091,419.887 394.772,424.091 380.769,414.099 396.156,421.79 384.629,409.022 398.002,419.841 389.49,404.893 
		400.225,418.334 395.124,401.906 402.719,417.34 401.27,400.199 405.369,416.906 407.638,399.854 408.05,417.051 413.931,400.886 
		410.637,417.769 419.856,403.247 413.01,419.027 425.135,406.826 415.056,420.765 429.521,411.456 416.681,422.903 432.809,416.92 
		417.808,425.34 434.845,422.964 418.386,427.962 435.535,429.304 418.386,430.647 	"/>
	<polygon fill="#FFFFFF" points="428.172,495.919 407.597,496.668 419.84,513.222 406.426,497.603 401.117,517.495 404.964,497.269 
		386.102,505.521 404.314,495.919 386.102,486.316 404.964,494.568 401.117,474.342 406.426,494.235 419.84,478.616 
		407.597,495.169 428.172,495.919 407.597,496.668 	"/>
	<polygon fill="none" stroke="#000000" stroke-width="0.765" stroke-linecap="round" stroke-miterlimit="10" points="
		428.172,495.919 407.597,496.668 419.84,513.222 406.426,497.603 401.116,517.495 404.964,497.269 386.102,505.521 
		404.314,495.919 386.102,486.316 404.964,494.568 401.116,474.342 406.426,494.235 419.84,478.616 407.597,495.169 
		428.172,495.919 407.597,496.668 	"/>
	<polygon fill="#FFFFFF" points="438.296,562.533 415.336,563.544 437.542,569.467 414.901,565.518 435.315,576.076 
		414.052,567.353 431.719,582.052 412.829,568.963 426.922,587.116 411.288,570.271 421.149,591.03 409.502,571.219 414.67,593.612 
		407.554,571.759 407.787,594.74 405.535,571.869 400.823,594.362 403.54,571.542 394.103,592.497 401.662,570.793 387.94,589.23 
		399.988,569.659 382.624,584.714 398.598,568.191 378.404,579.162 397.556,566.459 375.475,572.832 396.91,564.543 373.976,566.02 
		396.692,562.533 373.976,559.046 396.91,560.523 375.475,552.234 397.556,558.607 378.404,545.904 398.598,556.875 
		382.624,540.352 399.988,555.407 387.94,535.836 401.662,554.272 394.103,532.569 403.54,553.524 400.823,530.703 405.535,553.197 
		407.787,530.326 407.554,553.306 414.67,531.454 409.502,553.847 421.149,534.036 411.288,554.794 426.922,537.95 412.829,556.103 
		431.719,543.013 414.052,557.713 435.315,548.989 414.901,559.547 437.542,555.599 415.336,561.522 438.296,562.533 
		415.336,563.544 	"/>
	<polygon fill="none" stroke="#000000" stroke-width="0.765" stroke-linecap="round" stroke-miterlimit="10" points="
		438.296,562.533 415.336,563.544 437.542,569.467 414.901,565.518 435.315,576.076 414.052,567.353 431.719,582.052 
		412.829,568.963 426.922,587.116 411.288,570.271 421.149,591.03 409.502,571.218 414.67,593.612 407.554,571.759 407.787,594.74 
		405.535,571.869 400.823,594.362 403.54,571.542 394.102,592.497 401.662,570.793 387.94,589.23 399.988,569.659 382.625,584.714 
		398.598,568.191 378.404,579.162 397.556,566.459 375.475,572.832 396.91,564.543 373.976,566.02 396.691,562.533 373.976,559.046 
		396.91,560.523 375.475,552.234 397.556,558.607 378.404,545.904 398.598,556.875 382.625,540.352 399.988,555.407 387.94,535.836 
		401.662,554.272 394.102,532.569 403.54,553.524 400.823,530.703 405.535,553.197 407.787,530.326 407.554,553.306 414.67,531.454 
		409.502,553.847 421.149,534.036 411.288,554.794 426.922,537.95 412.829,556.103 431.719,543.013 414.052,557.713 435.315,548.99 
		414.901,559.547 437.542,555.599 415.336,561.522 438.296,562.533 415.336,563.544 	"/>
	<polygon fill="#FFFFFF" points="434.955,629.147 418.915,633.833 428.19,647.732 412.891,641.012 411.062,657.622 403.662,642.639 
		391.584,654.187 395.546,637.953 378.871,639.036 392.341,629.147 378.871,619.258 395.546,620.341 391.584,604.107 
		403.662,615.655 411.062,600.673 412.891,617.282 428.19,610.562 418.915,624.461 434.955,629.147 418.915,633.833 	"/>
	<polygon fill="none" stroke="#000000" stroke-width="0.765" stroke-linecap="round" stroke-miterlimit="10" points="
		434.955,629.147 418.915,633.833 428.19,647.732 412.891,641.012 411.062,657.622 403.662,642.639 391.584,654.187 
		395.546,637.953 378.871,639.036 392.341,629.147 378.871,619.258 395.546,620.341 391.584,604.107 403.662,615.655 
		411.062,600.673 412.891,617.282 428.19,610.562 418.915,624.461 434.955,629.147 418.915,633.833 	"/>
	<polygon fill="#FFFFFF" points="431.847,695.761 411.991,700.084 414.016,720.304 403.769,702.755 385.164,710.929 
		398.687,695.761 385.164,680.593 403.769,688.767 414.016,671.219 411.991,691.439 	"/>
	<polygon fill="none" stroke="#000000" stroke-width="0.765" stroke-linecap="round" stroke-miterlimit="10" points="
		431.847,695.761 411.991,700.084 414.016,720.304 403.769,702.755 385.164,710.929 398.687,695.761 385.164,680.593 
		403.769,688.767 414.016,671.219 411.991,691.439 	"/>
	<polygon fill="#FFFFFF" points="493.528,96.234 476.01,96.739 492.601,102.386 475.712,97.706 489.901,107.992 475.142,98.541 
		485.669,112.553 474.352,99.172 480.281,115.664 473.41,99.541 474.215,117.048 472.402,99.617 468.011,116.583 471.416,99.392 
		462.219,114.31 470.54,98.886 457.354,110.431 469.852,98.145 453.85,105.29 469.413,97.234 452.016,99.345 469.263,96.234 
		452.016,93.123 469.413,95.234 453.85,87.177 469.852,94.322 457.354,82.036 470.54,93.581 462.219,78.157 471.416,93.075 
		468.011,75.884 472.402,92.85 474.215,75.419 473.41,92.926 480.281,76.804 474.352,93.295 485.669,79.915 475.142,93.926 
		489.901,84.475 475.712,94.761 492.601,90.081 476.01,95.728 493.528,96.234 476.01,96.739 	"/>
	<polygon fill="none" stroke="#000000" stroke-width="0.765" stroke-linecap="round" stroke-miterlimit="10" points="
		493.528,96.234 476.01,96.739 492.601,102.386 475.712,97.706 489.901,107.992 475.142,98.541 485.669,112.553 474.352,99.172 
		480.281,115.664 473.41,99.541 474.215,117.048 472.402,99.617 468.011,116.583 471.416,99.392 462.219,114.31 470.54,98.886 
		457.354,110.431 469.852,98.145 453.85,105.29 469.413,97.234 452.016,99.345 469.262,96.234 452.016,93.123 469.413,95.234 
		453.85,87.177 469.852,94.322 457.354,82.037 470.54,93.581 462.219,78.157 471.416,93.075 468.011,75.884 472.402,92.85 
		474.215,75.419 473.41,92.926 480.281,76.804 474.352,93.295 485.669,79.915 475.142,93.926 489.901,84.476 475.712,94.762 
		492.601,90.081 476.01,95.728 493.528,96.234 476.01,96.739 	"/>
	<polygon fill="#FFFFFF" points="498.529,162.848 487.593,165.214 497.262,170.843 486.131,169.714 493.587,178.056 
		483.349,173.542 487.863,183.78 479.521,176.323 480.651,187.455 475.021,177.785 472.655,188.721 470.289,177.785 464.66,187.455 
		465.789,176.323 457.447,183.78 461.961,173.542 451.723,178.056 459.18,169.714 448.048,170.843 457.718,165.214 446.782,162.848 
		457.718,160.482 448.048,154.853 459.18,155.982 451.723,147.64 461.961,152.154 457.447,141.916 465.789,149.373 464.66,138.241 
		470.289,147.91 472.655,136.975 475.021,147.91 480.651,138.241 479.521,149.373 487.863,141.916 483.349,152.154 493.587,147.64 
		486.131,155.982 497.262,154.853 487.593,160.482 	"/>
	<polygon fill="none" stroke="#000000" stroke-width="0.765" stroke-linecap="round" stroke-miterlimit="10" points="
		498.529,162.848 487.593,165.214 497.262,170.843 486.13,169.714 493.587,178.056 483.349,173.542 487.863,183.78 479.521,176.323 
		480.651,187.455 475.021,177.785 472.655,188.721 470.289,177.785 464.66,187.455 465.789,176.323 457.447,183.78 461.961,173.542 
		451.723,178.056 459.18,169.714 448.048,170.843 457.718,165.214 446.782,162.848 457.718,160.482 448.048,154.853 459.18,155.982 
		451.723,147.64 461.961,152.154 457.447,141.916 465.789,149.373 464.66,138.241 470.289,147.91 472.655,136.975 475.021,147.91 
		480.651,138.241 479.521,149.373 487.863,141.916 483.349,152.154 493.587,147.64 486.131,155.982 497.262,154.853 
		487.593,160.482 	"/>
	<polygon fill="#FFFFFF" points="503.431,229.462 484.134,230.912 502.465,237.116 483.413,233.721 499.625,244.289 
		482.015,236.262 495.09,250.53 480.03,238.377 489.146,255.447 477.581,239.931 482.166,258.732 474.823,240.827 474.588,260.177 
		471.929,241.009 466.888,259.693 469.08,240.465 459.552,257.309 466.456,239.231 453.038,253.175 464.221,237.382 
		447.757,247.552 462.517,235.036 444.04,240.791 461.449,232.339 442.122,233.319 461.086,229.462 442.122,225.605 
		461.449,226.585 444.04,218.133 462.517,223.888 447.757,211.372 464.221,221.542 453.038,205.749 466.456,219.693 
		459.552,201.615 469.08,218.459 466.888,199.231 471.929,217.915 474.588,198.747 474.823,218.097 482.166,200.192 
		477.581,218.993 489.146,203.477 480.03,220.547 495.09,208.394 482.015,222.662 499.625,214.635 483.413,225.203 502.465,221.808 
		484.134,228.012 	"/>
	<polygon fill="none" stroke="#000000" stroke-width="0.765" stroke-linecap="round" stroke-miterlimit="10" points="
		503.431,229.462 484.134,230.912 502.465,237.116 483.413,233.721 499.625,244.289 482.015,236.263 495.09,250.53 480.03,238.377 
		489.146,255.447 477.581,239.931 482.166,258.732 474.823,240.827 474.588,260.177 471.929,241.009 466.888,259.693 
		469.08,240.465 459.551,257.309 466.456,239.231 453.038,253.175 464.221,237.382 447.757,247.552 462.517,235.036 444.04,240.792 
		461.449,232.339 442.122,233.319 461.086,229.462 442.122,225.605 461.449,226.585 444.04,218.133 462.517,223.888 
		447.757,211.372 464.221,221.542 453.038,205.749 466.456,219.693 459.552,201.615 469.08,218.459 466.888,199.231 
		471.929,217.915 474.588,198.747 474.823,218.097 482.166,200.192 477.581,218.993 489.146,203.477 480.03,220.547 495.09,208.394 
		482.015,222.662 499.625,214.636 483.413,225.203 502.465,221.808 484.134,228.012 	"/>
	<polygon fill="#FFFFFF" points="502.995,296.076 483.88,297.554 501.962,303.929 483.115,300.409 498.931,311.246 481.637,302.968 
		494.109,317.53 479.547,305.058 487.825,322.352 476.988,306.536 480.508,325.383 474.133,307.301 472.655,326.416 
		471.178,307.301 464.803,325.383 468.323,306.536 457.485,322.352 465.763,305.058 451.202,317.53 463.674,302.968 446.38,311.246 
		462.196,300.409 443.349,303.929 461.431,297.554 442.315,296.076 461.431,294.598 443.349,288.224 462.196,291.744 
		446.38,280.906 463.674,289.184 451.202,274.622 465.763,287.094 457.485,269.801 468.323,285.617 464.803,266.77 471.178,284.852 
		472.655,265.736 474.133,284.852 480.508,266.77 476.988,285.617 487.825,269.801 479.547,287.094 494.109,274.622 
		481.637,289.184 498.931,280.906 483.115,291.744 501.962,288.224 483.88,294.598 502.995,296.076 483.88,297.554 	"/>
	<polygon fill="none" stroke="#000000" stroke-width="0.765" stroke-linecap="round" stroke-miterlimit="10" points="
		502.996,296.076 483.88,297.554 501.962,303.929 483.115,300.409 498.931,311.246 481.637,302.968 494.109,317.53 479.547,305.058 
		487.825,322.352 476.988,306.536 480.508,325.383 474.133,307.301 472.655,326.416 471.178,307.301 464.803,325.383 
		468.323,306.536 457.485,322.352 465.763,305.058 451.202,317.53 463.674,302.968 446.38,311.246 462.196,300.409 443.349,303.929 
		461.431,297.554 442.315,296.076 461.431,294.598 443.349,288.224 462.196,291.744 446.38,280.906 463.674,289.184 
		451.201,274.622 465.763,287.094 457.485,269.801 468.323,285.617 464.803,266.77 471.178,284.852 472.655,265.736 
		474.133,284.852 480.508,266.77 476.988,285.617 487.825,269.801 479.547,287.094 494.109,274.622 481.637,289.184 
		498.931,280.906 483.115,291.744 501.962,288.224 483.88,294.598 502.996,296.076 483.88,297.554 	"/>
	<polygon fill="#FFFFFF" points="500.246,362.69 487.257,367.435 494.977,378.908 481.68,375.111 481.182,388.931 472.655,378.043 
		464.129,388.931 463.631,375.111 450.334,378.908 458.054,367.435 445.064,362.69 458.054,357.946 450.334,346.473 463.631,350.27 
		464.129,336.45 472.655,347.337 481.182,336.45 481.68,350.27 494.977,346.473 487.257,357.946 	"/>
	<polygon fill="none" stroke="#000000" stroke-width="0.765" stroke-linecap="round" stroke-miterlimit="10" points="
		500.246,362.69 487.257,367.435 494.977,378.908 481.679,375.111 481.181,388.931 472.655,378.043 464.129,388.931 
		463.631,375.111 450.334,378.908 458.054,367.435 445.064,362.69 458.054,357.946 450.334,346.473 463.631,350.27 464.129,336.45 
		472.655,347.337 481.181,336.45 481.679,350.27 494.977,346.473 487.257,357.946 	"/>
	<polygon fill="#FFFFFF" points="493.077,429.305 488.117,433.845 489.835,440.345 483.208,441.483 481.139,447.881 
		474.949,445.255 469.749,449.519 465.961,443.963 459.282,444.738 459.099,438.017 453.061,435.058 456.54,429.305 
		453.061,423.551 459.099,420.592 459.282,413.871 465.961,414.646 469.749,409.09 474.949,413.354 481.139,410.728 
		483.208,417.126 489.835,418.264 488.117,424.764 493.077,429.305 488.117,433.845 	"/>
	<polygon fill="none" stroke="#000000" stroke-width="0.765" stroke-linecap="round" stroke-miterlimit="10" points="
		493.077,429.305 488.117,433.845 489.835,440.345 483.208,441.483 481.139,447.881 474.949,445.255 469.749,449.519 
		465.961,443.963 459.282,444.738 459.099,438.017 453.061,435.058 456.54,429.305 453.061,423.551 459.099,420.592 
		459.282,413.871 465.961,414.646 469.749,409.091 474.949,413.354 481.139,410.728 483.208,417.126 489.835,418.264 
		488.117,424.764 493.077,429.305 488.117,433.845 	"/>
	<polygon fill="#FFFFFF" points="491.848,495.919 473.814,496.078 491.136,501.097 473.728,496.385 489.054,505.891 
		473.563,496.657 485.755,509.945 473.33,496.875 481.485,512.96 473.047,497.021 476.56,514.71 472.735,497.086 471.346,515.067 
		472.417,497.064 466.228,514.003 472.117,496.958 461.587,511.599 471.857,496.774 457.767,508.031 471.656,496.527 
		455.052,503.565 471.529,496.234 453.641,498.532 471.485,495.919 453.641,493.305 471.529,495.603 455.052,488.272 
		471.656,495.311 457.767,483.806 471.857,495.064 461.587,480.239 472.117,494.88 466.228,477.834 472.417,494.773 
		471.346,476.771 472.735,494.751 476.56,477.127 473.047,494.816 481.485,478.878 473.33,494.963 485.755,481.892 473.563,495.18 
		489.054,485.946 473.728,495.453 491.136,490.741 473.814,495.759 491.848,495.919 473.814,496.078 	"/>
	<polygon fill="none" stroke="#000000" stroke-width="0.765" stroke-linecap="round" stroke-miterlimit="10" points="
		491.848,495.919 473.814,496.078 491.136,501.097 473.728,496.385 489.054,505.891 473.563,496.657 485.755,509.946 
		473.33,496.875 481.485,512.96 473.047,497.021 476.56,514.71 472.735,497.086 471.346,515.067 472.417,497.064 466.228,514.003 
		472.117,496.958 461.587,511.599 471.857,496.774 457.767,508.031 471.656,496.527 455.051,503.565 471.529,496.234 
		453.641,498.532 471.485,495.919 453.641,493.305 471.529,495.603 455.051,488.272 471.656,495.311 457.767,483.806 
		471.857,495.064 461.587,480.239 472.117,494.88 466.228,477.834 472.417,494.773 471.346,476.771 472.735,494.751 476.56,477.127 
		473.047,494.816 481.485,478.878 473.33,494.963 485.755,481.892 473.563,495.18 489.054,485.946 473.728,495.453 491.136,490.741 
		473.814,495.759 491.848,495.919 473.814,496.078 	"/>
	<polygon fill="#FFFFFF" points="490.971,562.533 473.215,562.622 490.074,568.193 473.16,562.79 487.473,573.298 473.056,562.934 
		483.421,577.35 472.913,563.038 478.315,579.952 472.744,563.093 472.655,580.848 472.567,563.093 466.996,579.952 
		472.398,563.038 461.89,577.35 472.255,562.934 457.838,573.298 472.15,562.79 455.236,568.193 472.096,562.622 454.34,562.533 
		472.096,562.444 455.236,556.873 472.15,562.276 457.838,551.767 472.255,562.132 461.89,547.716 472.398,562.028 466.996,545.114 
		472.567,561.973 472.655,544.218 472.744,561.973 478.315,545.114 472.913,562.028 483.421,547.716 473.056,562.132 
		487.473,551.767 473.16,562.276 490.074,556.873 473.215,562.444 	"/>
	<polygon fill="none" stroke="#000000" stroke-width="0.765" stroke-linecap="round" stroke-miterlimit="10" points="
		490.971,562.533 473.215,562.622 490.074,568.193 473.16,562.79 487.473,573.298 473.056,562.934 483.421,577.35 472.913,563.038 
		478.315,579.952 472.744,563.093 472.655,580.848 472.567,563.093 466.996,579.952 472.398,563.038 461.89,577.35 472.255,562.934 
		457.838,573.298 472.15,562.79 455.236,568.193 472.096,562.622 454.34,562.533 472.096,562.444 455.236,556.873 472.15,562.276 
		457.838,551.767 472.255,562.132 461.89,547.716 472.398,562.028 466.996,545.114 472.567,561.973 472.655,544.218 
		472.744,561.973 478.315,545.114 472.913,562.028 483.421,547.716 473.056,562.132 487.473,551.767 473.16,562.276 
		490.074,556.873 473.215,562.444 	"/>
	<polygon fill="#FFFFFF" points="493.959,629.147 479.58,630.143 493.096,635.149 479.019,632.053 490.577,640.664 477.942,633.728 
		486.606,645.247 476.438,635.032 481.505,648.525 474.626,635.859 475.687,650.234 472.655,636.143 469.624,650.234 
		470.684,635.859 463.806,648.525 468.873,635.032 458.705,645.247 467.368,633.728 454.734,640.664 466.292,632.053 
		452.215,635.149 465.731,630.143 451.352,629.147 465.731,628.151 452.215,623.145 466.292,626.241 454.734,617.63 
		467.368,624.566 458.705,613.047 468.873,623.262 463.806,609.769 470.684,622.435 469.624,608.06 472.655,622.151 475.687,608.06 
		474.626,622.435 481.505,609.769 476.438,623.262 486.606,613.047 477.942,624.566 490.577,617.63 479.019,626.241 
		493.096,623.145 479.58,628.151 493.959,629.147 479.58,630.143 	"/>
	<polygon fill="none" stroke="#000000" stroke-width="0.765" stroke-linecap="round" stroke-miterlimit="10" points="
		493.959,629.147 479.58,630.143 493.096,635.149 479.019,632.053 490.577,640.665 477.942,633.728 486.606,645.247 
		476.437,635.032 481.505,648.525 474.626,635.859 475.687,650.234 472.655,636.143 469.624,650.234 470.684,635.859 
		463.806,648.525 468.873,635.032 458.705,645.247 467.368,633.728 454.734,640.665 466.292,632.053 452.215,635.149 
		465.731,630.143 451.352,629.147 465.731,628.151 452.215,623.145 466.292,626.241 454.734,617.63 467.368,624.566 
		458.705,613.047 468.873,623.262 463.806,609.769 470.684,622.435 469.624,608.06 472.655,622.151 475.687,608.06 474.626,622.435 
		481.505,609.769 476.437,623.262 486.606,613.047 477.942,624.566 490.577,617.63 479.019,626.241 493.096,623.145 479.58,628.151 
		493.959,629.147 479.58,630.143 	"/>
	<polygon fill="#FFFFFF" points="503.845,695.761 480.977,710.174 457.061,722.772 456.013,695.761 457.061,668.75 480.977,681.349 
			"/>
	<polygon fill="none" stroke="#000000" stroke-width="0.765" stroke-linecap="round" stroke-miterlimit="10" points="
		503.845,695.761 480.976,710.174 457.061,722.772 456.013,695.761 457.061,668.75 480.976,681.349 	"/>
	<polygon fill="#FFFFFF" points="572.099,96.234 544.548,96.959 570.882,105.091 544.157,98.357 567.32,113.291 543.403,99.596 
		561.678,120.227 542.342,100.587 554.373,125.383 541.054,101.254 545.949,128.377 539.633,101.55 537.029,128.987 
		538.185,101.451 528.275,127.168 536.818,100.965 520.337,123.055 535.633,100.128 513.803,116.952 534.717,99.002 
		509.158,109.313 534.139,97.671 506.745,100.704 533.941,96.234 506.745,91.763 534.139,94.796 509.158,83.154 534.717,93.465 
		513.803,75.515 535.633,92.339 520.337,69.413 536.818,91.503 528.275,65.299 538.185,91.017 537.029,63.48 539.633,90.918 
		545.949,64.09 541.054,91.213 554.373,67.085 542.342,91.88 561.678,72.24 543.403,92.871 567.32,79.176 544.157,94.111 
		570.882,87.376 544.548,95.508 572.099,96.234 544.548,96.959 	"/>
	<polygon fill="none" stroke="#000000" stroke-width="0.765" stroke-linecap="round" stroke-miterlimit="10" points="
		572.099,96.234 544.548,96.959 570.882,105.091 544.157,98.357 567.32,113.291 543.403,99.596 561.678,120.227 542.342,100.587 
		554.373,125.383 541.054,101.254 545.949,128.377 539.633,101.55 537.029,128.987 538.185,101.451 528.275,127.168 
		536.818,100.965 520.337,123.055 535.633,100.128 513.803,116.952 534.717,99.002 509.158,109.313 534.139,97.671 506.745,100.704 
		533.941,96.234 506.745,91.763 534.139,94.796 509.158,83.154 534.717,93.465 513.803,75.515 535.633,92.339 520.337,69.413 
		536.818,91.503 528.275,65.299 538.185,91.017 537.029,63.48 539.633,90.918 545.949,64.091 541.054,91.213 554.373,67.085 
		542.342,91.881 561.678,72.24 543.403,92.871 567.32,79.176 544.157,94.111 570.882,87.376 544.548,95.508 572.099,96.234 
		544.548,96.959 	"/>
	<polygon fill="#FFFFFF" points="569.064,229.462 542.078,230.154 565.651,243.308 541.435,231.38 556.195,253.983 540.295,232.167 
		542.861,259.04 538.921,232.334 528.704,257.321 537.626,231.843 516.968,249.22 536.708,230.806 510.34,236.592 536.377,229.462 
		510.34,222.332 536.708,228.118 516.968,209.704 537.626,227.081 528.704,201.603 538.921,226.59 542.861,199.884 540.295,226.757 
		556.195,204.941 541.435,227.544 565.651,215.616 542.078,228.77 	"/>
	<polygon fill="none" stroke="#000000" stroke-width="0.765" stroke-linecap="round" stroke-miterlimit="10" points="
		569.064,229.462 542.078,230.154 565.651,243.308 541.435,231.38 556.195,253.983 540.295,232.167 542.861,259.04 538.921,232.334 
		528.704,257.321 537.626,231.843 516.968,249.22 536.708,230.806 510.34,236.592 536.377,229.462 510.34,222.332 536.708,228.118 
		516.968,209.704 537.626,227.081 528.704,201.603 538.921,226.59 542.861,199.884 540.295,226.757 556.195,204.941 
		541.435,227.544 565.651,215.616 542.078,228.77 	"/>
	<polygon fill="#FFFFFF" points="556.963,296.076 549.655,299.451 553.584,306.476 545.688,304.911 544.737,312.904 539.27,306.997 
		533.802,312.904 532.851,304.911 524.955,306.476 528.884,299.451 521.576,296.076 528.884,292.702 524.955,285.676 
		532.851,287.241 533.802,279.249 539.27,285.156 544.737,279.249 545.688,287.241 553.584,285.676 549.655,292.702 	"/>
	<polygon fill="none" stroke="#000000" stroke-width="0.765" stroke-linecap="round" stroke-miterlimit="10" points="
		556.963,296.076 549.655,299.451 553.584,306.476 545.688,304.911 544.737,312.904 539.269,306.996 533.802,312.904 
		532.851,304.911 524.955,306.476 528.884,299.451 521.576,296.076 528.884,292.702 524.955,285.676 532.851,287.241 
		533.802,279.249 539.269,285.156 544.737,279.249 545.688,287.241 553.584,285.676 549.655,292.702 	"/>
	<polygon fill="#FFFFFF" points="568.017,362.69 546.075,364.137 565.532,374.383 544.899,366.78 558.506,384.054 542.749,368.716 
		548.153,390.031 539.997,369.61 536.264,391.281 537.119,369.308 524.895,387.587 534.614,367.861 516.012,379.588 532.913,365.52 
		511.15,368.667 532.312,362.69 511.15,356.713 532.913,359.86 516.012,345.793 534.614,357.52 524.895,337.794 537.119,356.073 
		536.264,334.1 539.997,355.77 548.153,335.349 542.749,356.664 558.506,341.326 544.899,358.601 565.532,350.997 546.075,361.244 	
		"/>
	<polygon fill="none" stroke="#000000" stroke-width="0.765" stroke-linecap="round" stroke-miterlimit="10" points="
		568.017,362.69 546.075,364.137 565.532,374.383 544.899,366.78 558.506,384.054 542.748,368.716 548.153,390.031 539.997,369.61 
		536.265,391.281 537.119,369.308 524.895,387.587 534.614,367.861 516.012,379.588 532.913,365.52 511.15,368.667 532.311,362.69 
		511.15,356.713 532.913,359.86 516.012,345.793 534.614,357.52 524.895,337.794 537.119,356.073 536.265,334.1 539.997,355.77 
		548.153,335.349 542.748,356.665 558.506,341.326 544.899,358.601 565.532,350.997 546.075,361.244 	"/>
	<polygon fill="#FFFFFF" points="565.445,429.305 552.444,433.585 560.446,444.69 547.412,440.511 547.358,454.199 539.27,443.157 
		531.181,454.199 531.127,440.511 518.093,444.69 526.095,433.585 513.094,429.305 526.095,425.024 518.093,413.919 
		531.127,418.098 531.181,404.41 539.27,415.452 547.358,404.41 547.412,418.098 560.446,413.919 552.444,425.024 	"/>
	<polygon fill="none" stroke="#000000" stroke-width="0.765" stroke-linecap="round" stroke-miterlimit="10" points="
		565.445,429.305 552.444,433.585 560.446,444.69 547.412,440.511 547.358,454.199 539.269,443.157 531.181,454.199 
		531.127,440.511 518.093,444.69 526.095,433.585 513.094,429.305 526.095,425.024 518.093,413.919 531.127,418.098 531.181,404.41 
		539.269,415.452 547.358,404.41 547.412,418.098 560.446,413.919 552.444,425.024 	"/>
	<polygon fill="#FFFFFF" points="564.935,495.919 549.905,506.555 539.27,521.584 528.634,506.555 513.604,495.919 528.634,485.283 
		539.27,470.253 549.905,485.283 	"/>
	<polygon fill="none" stroke="#000000" stroke-width="0.765" stroke-linecap="round" stroke-miterlimit="10" points="
		564.935,495.919 549.905,506.555 539.269,521.584 528.634,506.555 513.604,495.919 528.634,485.283 539.269,470.253 
		549.905,485.283 	"/>
	<polygon fill="#FFFFFF" points="565.232,562.533 554.205,565.166 563.666,571.413 552.403,570.116 559.158,579.221 549.018,574.15 
		552.251,585.017 544.456,576.784 543.778,588.101 539.27,577.698 534.761,588.101 534.083,576.784 526.288,585.017 529.521,574.15 
		519.381,579.221 526.136,570.116 514.873,571.413 524.334,565.166 513.307,562.533 524.334,559.899 514.873,553.653 
		526.136,554.95 519.381,545.844 529.521,550.915 526.288,540.049 534.083,548.282 534.761,536.965 539.27,547.367 543.778,536.965 
		544.456,548.282 552.251,540.049 549.018,550.915 559.158,545.844 552.403,554.95 563.666,553.653 554.205,559.899 
		565.232,562.533 554.205,565.166 	"/>
	<polygon fill="none" stroke="#000000" stroke-width="0.765" stroke-linecap="round" stroke-miterlimit="10" points="
		565.232,562.533 554.205,565.166 563.666,571.413 552.403,570.116 559.158,579.221 549.018,574.15 552.251,585.017 
		544.456,576.784 543.778,588.101 539.269,577.698 534.761,588.101 534.083,576.784 526.288,585.017 529.521,574.15 
		519.381,579.221 526.136,570.116 514.873,571.413 524.334,565.166 513.307,562.533 524.334,559.899 514.873,553.653 
		526.136,554.95 519.381,545.844 529.521,550.916 526.288,540.049 534.083,548.282 534.761,536.965 539.269,547.367 
		543.778,536.965 544.456,548.282 552.251,540.049 549.018,550.915 559.158,545.844 552.403,554.95 563.666,553.653 
		554.205,559.899 565.232,562.533 554.205,565.166 	"/>
	<polygon fill="#FFFFFF" points="569.441,629.147 546.681,630.321 567.964,638.471 545.956,632.554 563.679,646.881 
		544.576,634.453 557.004,653.556 542.676,635.833 548.593,657.842 540.443,636.559 539.27,659.319 538.096,636.559 
		529.946,657.842 535.863,635.833 521.535,653.556 533.963,634.453 514.86,646.881 532.583,632.554 510.575,638.471 
		531.858,630.321 509.098,629.147 531.858,627.973 510.575,619.823 532.583,625.74 514.86,611.413 533.963,623.841 521.535,604.738 
		535.863,622.461 529.946,600.452 538.096,621.735 539.27,598.976 540.443,621.735 548.593,600.452 542.676,622.461 
		557.004,604.738 544.576,623.841 563.679,611.413 545.956,625.74 567.964,619.824 546.681,627.973 	"/>
	<polygon fill="none" stroke="#000000" stroke-width="0.765" stroke-linecap="round" stroke-miterlimit="10" points="
		569.441,629.147 546.681,630.321 567.964,638.471 545.956,632.554 563.679,646.881 544.576,634.453 557.004,653.556 
		542.676,635.833 548.593,657.842 540.443,636.559 539.269,659.319 538.096,636.559 529.946,657.842 535.863,635.833 
		521.535,653.556 533.963,634.453 514.86,646.881 532.583,632.554 510.575,638.471 531.858,630.321 509.098,629.147 
		531.858,627.973 510.575,619.824 532.583,625.74 514.86,611.413 533.963,623.841 521.535,604.738 535.863,622.461 529.946,600.452 
		538.096,621.735 539.27,598.976 540.443,621.735 548.593,600.452 542.676,622.461 557.004,604.738 544.576,623.841 
		563.679,611.413 545.956,625.74 567.964,619.824 546.681,627.973 	"/>
	<polygon fill="#FFFFFF" points="562.649,695.761 539.491,695.842 557.179,710.789 539.387,695.965 543.329,718.785 
		539.229,695.993 527.58,716.008 539.089,695.913 517.3,703.757 539.034,695.761 517.3,687.765 539.089,695.61 527.58,675.514 
		539.229,695.529 543.329,672.737 539.387,695.557 557.179,680.733 539.491,695.681 562.649,695.761 539.491,695.842 	"/>
	<polygon fill="none" stroke="#000000" stroke-width="0.765" stroke-linecap="round" stroke-miterlimit="10" points="
		562.649,695.761 539.491,695.842 557.179,710.789 539.387,695.965 543.329,718.785 539.228,695.993 527.58,716.008 
		539.089,695.913 517.3,703.757 539.034,695.761 517.3,687.765 539.089,695.61 527.58,675.514 539.228,695.529 543.329,672.737 
		539.387,695.557 557.179,680.733 539.491,695.681 562.649,695.761 539.491,695.842 	"/>
</g>
</svg>
